<?xml version="1.0" encoding="utf-8" standalone="no"?>
<!DOCTYPE svg PUBLIC "-//W3C//DTD SVG 1.1//EN"
  "http://www.w3.org/Graphics/SVG/1.1/DTD/svg11.dtd">
<!-- Created with matplotlib (http://matplotlib.org/) -->
<svg height="324pt" version="1.1" viewBox="0 0 454 324" width="454pt" xmlns="http://www.w3.org/2000/svg" xmlns:xlink="http://www.w3.org/1999/xlink">
 <defs>
  <style type="text/css">
*{stroke-linecap:butt;stroke-linejoin:round;stroke-miterlimit:100000;}
  </style>
 </defs>
 <g id="figure_1">
  <g id="patch_1">
   <path d="M 0 324.75625 
L 454.621307 324.75625 
L 454.621307 0 
L 0 0 
z
" style="fill:#ffffff;"/>
  </g>
  <g id="axes_1">
   <g id="patch_2">
    <path d="M 41.603125 286.2 
L 447.421307 286.2 
L 447.421307 7.2 
L 41.603125 7.2 
z
" style="fill:#ffffff;"/>
   </g>
   <g id="PathCollection_1">
    <path clip-path="url(#pc35cd14007)" d="M 62.447422 269.402099 
C 68.995845 269.402099 75.276943 266.800383 79.907377 262.169949 
C 84.537811 257.539515 87.139527 251.258417 87.139527 244.709995 
C 87.139527 238.161572 84.537811 231.880474 79.907377 227.25004 
C 75.276943 222.619606 68.995845 220.01789 62.447422 220.01789 
C 55.899 220.01789 49.617902 222.619606 44.987468 227.25004 
C 40.357034 231.880474 37.755318 238.161572 37.755318 244.709995 
C 37.755318 251.258417 40.357034 257.539515 44.987468 262.169949 
C 49.617902 266.800383 55.899 269.402099 62.447422 269.402099 
z
" style="fill:#fd8d3c;stroke:#ffffff;stroke-width:2.0;"/>
    <path clip-path="url(#pc35cd14007)" d="M 53.593207 251.404891 
C 60.118497 251.404891 66.377406 248.812366 70.991483 244.19829 
C 75.60556 239.584213 78.198085 233.325304 78.198085 226.800014 
C 78.198085 220.274724 75.60556 214.015815 70.991483 209.401738 
C 66.377406 204.787661 60.118497 202.195136 53.593207 202.195136 
C 47.067917 202.195136 40.809008 204.787661 36.194931 209.401738 
C 31.580855 214.015815 28.988329 220.274724 28.988329 226.800014 
C 28.988329 233.325304 31.580855 239.584213 36.194931 244.19829 
C 40.809008 248.812366 47.067917 251.404891 53.593207 251.404891 
z
" style="fill:#fecc5c;stroke:#ffffff;stroke-width:2.0;"/>
    <path clip-path="url(#pc35cd14007)" d="M 64.845439 181.91517 
C 67.310544 181.91517 69.675017 180.935773 71.41811 179.19268 
C 73.161202 177.449588 74.140599 175.085115 74.140599 172.62001 
C 74.140599 170.154904 73.161202 167.790431 71.41811 166.047339 
C 69.675017 164.304246 67.310544 163.324849 64.845439 163.324849 
C 62.380334 163.324849 60.015861 164.304246 58.272768 166.047339 
C 56.529675 167.790431 55.550279 170.154904 55.550279 172.62001 
C 55.550279 175.085115 56.529675 177.449588 58.272768 179.19268 
C 60.015861 180.935773 62.380334 181.91517 64.845439 181.91517 
z
" style="fill:#de2d26;stroke:#ffffff;stroke-width:2.0;"/>
    <path clip-path="url(#pc35cd14007)" d="M 75.083126 123.222052 
C 77.95051 123.222052 80.700839 122.082828 82.728386 120.055282 
C 84.755932 118.027735 85.895156 115.277406 85.895156 112.410022 
C 85.895156 109.542638 84.755932 106.792309 82.728386 104.764762 
C 80.700839 102.737216 77.95051 101.597992 75.083126 101.597992 
C 72.215742 101.597992 69.465413 102.737216 67.437866 104.764762 
C 65.41032 106.792309 64.271096 109.542638 64.271096 112.410022 
C 64.271096 115.277406 65.41032 118.027735 67.437866 120.055282 
C 69.465413 122.082828 72.215742 123.222052 75.083126 123.222052 
z
" style="fill:#7a0177;stroke:#ffffff;stroke-width:2.0;"/>
    <path clip-path="url(#pc35cd14007)" d="M 327.24378 137.816749 
C 337.10848 137.816749 346.570475 133.897463 353.545871 126.922067 
C 360.521267 119.94667 364.440554 110.484675 364.440554 100.619975 
C 364.440554 90.755275 360.521267 81.29328 353.545871 74.317884 
C 346.570475 67.342488 337.10848 63.423201 327.24378 63.423201 
C 317.37908 63.423201 307.917085 67.342488 300.941689 74.317884 
C 293.966292 81.29328 290.047006 90.755275 290.047006 100.619975 
C 290.047006 110.484675 293.966292 119.94667 300.941689 126.922067 
C 307.917085 133.897463 317.37908 137.816749 327.24378 137.816749 
z
" style="fill:#006d2c;stroke:#ffffff;stroke-width:2.0;"/>
    <path clip-path="url(#pc35cd14007)" d="M 403.980324 137.443845 
C 414.032536 137.443845 423.674388 133.450058 430.782376 126.342071 
C 437.890363 119.234084 441.884149 109.592231 441.884149 99.540019 
C 441.884149 89.487807 437.890363 79.845955 430.782376 72.737967 
C 423.674388 65.62998 414.032536 61.636194 403.980324 61.636194 
C 393.928112 61.636194 384.286259 65.62998 377.178272 72.737967 
C 370.070284 79.845955 366.076498 89.487807 366.076498 99.540019 
C 366.076498 109.592231 370.070284 119.234084 377.178272 126.342071 
C 384.286259 133.450058 393.928112 137.443845 403.980324 137.443845 
z
" style="fill:#74c476;stroke:#ffffff;stroke-width:2.0;"/>
    <path clip-path="url(#pc35cd14007)" d="M 69.272546 126.260649 
C 71.489809 126.260649 73.616557 125.379721 75.184399 123.81188 
C 76.75224 122.244038 77.633168 120.11729 77.633168 117.900027 
C 77.633168 115.682765 76.75224 113.556017 75.184399 111.988175 
C 73.616557 110.420333 71.489809 109.539406 69.272546 109.539406 
C 67.055284 109.539406 64.928536 110.420333 63.360694 111.988175 
C 61.792852 113.556017 60.911925 115.682765 60.911925 117.900027 
C 60.911925 120.11729 61.792852 122.244038 63.360694 123.81188 
C 64.928536 125.379721 67.055284 126.260649 69.272546 126.260649 
z
" style="fill:#08519c;stroke:#ffffff;stroke-width:2.0;"/>
    <path clip-path="url(#pc35cd14007)" d="M 109.300978 94.504801 
C 113.216654 94.504801 116.972482 92.949086 119.741284 90.180284 
C 122.510086 87.411483 124.0658 83.655655 124.0658 79.739978 
C 124.0658 75.824301 122.510086 72.068473 119.741284 69.299672 
C 116.972482 66.53087 113.216654 64.975155 109.300978 64.975155 
C 105.385301 64.975155 101.629473 66.53087 98.860671 69.299672 
C 96.09187 72.068473 94.536155 75.824301 94.536155 79.739978 
C 94.536155 83.655655 96.09187 87.411483 98.860671 90.180284 
C 101.629473 92.949086 105.385301 94.504801 109.300978 94.504801 
z
" style="fill:#c51b8a;stroke:#ffffff;stroke-width:2.0;"/>
    <path clip-path="url(#pc35cd14007)" d="M 117.325109 70.347476 
C 121.565042 70.347476 125.631889 68.662932 128.629975 65.664847 
C 131.62806 62.666761 133.312604 58.599914 133.312604 54.359981 
C 133.312604 50.120048 131.62806 46.0532 128.629975 43.055115 
C 125.631889 40.057029 121.565042 38.372486 117.325109 38.372486 
C 113.085176 38.372486 109.018328 40.057029 106.020243 43.055115 
C 103.022157 46.0532 101.337614 50.120048 101.337614 54.359981 
C 101.337614 58.599914 103.022157 62.666761 106.020243 65.664847 
C 109.018328 68.662932 113.085176 70.347476 117.325109 70.347476 
z
" style="fill:#f768a1;stroke:#ffffff;stroke-width:2.0;"/>
    <path clip-path="url(#pc35cd14007)" d="M 185.94527 61.258745 
C 191.546018 61.258745 196.918128 59.033544 200.878455 55.073217 
C 204.838781 51.11289 207.063982 45.740781 207.063982 40.140033 
C 207.063982 34.539285 204.838781 29.167175 200.878455 25.206849 
C 196.918128 21.246522 191.546018 19.021321 185.94527 19.021321 
C 180.344522 19.021321 174.972413 21.246522 171.012086 25.206849 
C 167.051759 29.167175 164.826559 34.539285 164.826559 40.140033 
C 164.826559 45.740781 167.051759 51.11289 171.012086 55.073217 
C 174.972413 59.033544 180.344522 61.258745 185.94527 61.258745 
z
" style="fill:#fbb4b9;stroke:#ffffff;stroke-width:2.0;"/>
    <path clip-path="url(#pc35cd14007)" d="M 147.208082 44.873456 
C 151.303731 44.873456 155.232185 43.246237 158.128247 40.350176 
C 161.024308 37.454114 162.651527 33.525661 162.651527 29.430011 
C 162.651527 25.334361 161.024308 21.405908 158.128247 18.509846 
C 155.232185 15.613784 151.303731 13.986566 147.208082 13.986566 
C 143.112432 13.986566 139.183979 15.613784 136.287917 18.509846 
C 133.391855 21.405908 131.764637 25.334361 131.764637 29.430011 
C 131.764637 33.525661 133.391855 37.454114 136.287917 40.350176 
C 139.183979 43.246237 143.112432 44.873456 147.208082 44.873456 
z
" style="fill:#6baed6;stroke:#ffffff;stroke-width:2.0;"/>
    <path clip-path="url(#pc35cd14007)" d="M 179.950232 248.271068 
C 181.825502 248.271068 183.624217 247.526016 184.950232 246.2 
C 186.276248 244.873985 187.0213 243.075269 187.0213 241.2 
C 187.0213 239.324731 186.276248 237.526016 184.950232 236.2 
C 183.624217 234.873985 181.825502 234.128932 179.950232 234.128932 
C 178.074963 234.128932 176.276248 234.873985 174.950232 236.2 
C 173.624217 237.526016 172.879165 239.324731 172.879165 241.2 
C 172.879165 243.075269 173.624217 244.873985 174.950232 246.2 
C 176.276248 247.526016 178.074963 248.271068 179.950232 248.271068 
z
" style="fill:#e6e6e6;stroke:#ffffff;stroke-width:2.0;"/>
    <path clip-path="url(#pc35cd14007)" d="M 226.065935 259.908287 
C 231.027431 259.908287 235.786384 257.937064 239.294691 254.428757 
C 242.802999 250.920449 244.774222 246.161496 244.774222 241.2 
C 244.774222 236.238504 242.802999 231.479551 239.294691 227.971243 
C 235.786384 224.462936 231.027431 222.491713 226.065935 222.491713 
C 221.104439 222.491713 216.345486 224.462936 212.837178 227.971243 
C 209.328871 231.479551 207.357648 236.238504 207.357648 241.2 
C 207.357648 246.161496 209.328871 250.920449 212.837178 254.428757 
C 216.345486 257.937064 221.104439 259.908287 226.065935 259.908287 
z
" style="fill:#e6e6e6;stroke:#ffffff;stroke-width:2.0;"/>
    <path clip-path="url(#pc35cd14007)" d="M 272.181637 266.695098 
C 278.943016 266.695098 285.428377 264.008773 290.209394 259.227756 
C 294.990411 254.44674 297.676735 247.961379 297.676735 241.2 
C 297.676735 234.438621 294.990411 227.95326 290.209394 223.172244 
C 285.428377 218.391227 278.943016 215.704902 272.181637 215.704902 
C 265.420258 215.704902 258.934898 218.391227 254.153881 223.172244 
C 249.372864 227.95326 246.68654 234.438621 246.68654 241.2 
C 246.68654 247.961379 249.372864 254.44674 254.153881 259.227756 
C 258.934898 264.008773 265.420258 266.695098 272.181637 266.695098 
z
" style="fill:#e6e6e6;stroke:#ffffff;stroke-width:2.0;"/>
    <path clip-path="url(#pc35cd14007)" d="M 318.29734 272.02207 
C 326.471448 272.02207 334.311867 268.774462 340.091835 262.994495 
C 345.871802 257.214527 349.11941 249.374109 349.11941 241.2 
C 349.11941 233.025891 345.871802 225.185473 340.091835 219.405505 
C 334.311867 213.625538 326.471448 210.37793 318.29734 210.37793 
C 310.123231 210.37793 302.282813 213.625538 296.502845 219.405505 
C 290.722878 225.185473 287.47527 233.025891 287.47527 241.2 
C 287.47527 249.374109 290.722878 257.214527 296.502845 262.994495 
C 302.282813 268.774462 310.123231 272.02207 318.29734 272.02207 
z
" style="fill:#e6e6e6;stroke:#ffffff;stroke-width:2.0;"/>
    <path clip-path="url(#pc35cd14007)" d="M 364.413042 276.555339 
C 373.789388 276.555339 382.782965 272.830078 389.413042 266.2 
C 396.04312 259.569923 399.768381 250.576346 399.768381 241.2 
C 399.768381 231.823654 396.04312 222.830078 389.413042 216.2 
C 382.782965 209.569923 373.789388 205.844661 364.413042 205.844661 
C 355.036697 205.844661 346.04312 209.569923 339.413042 216.2 
C 332.782965 222.830078 329.057703 231.823654 329.057703 241.2 
C 329.057703 250.576346 332.782965 259.569923 339.413042 266.2 
C 346.04312 272.830078 355.036697 276.555339 364.413042 276.555339 
z
" style="fill:#e6e6e6;stroke:#ffffff;stroke-width:2.0;"/>
    <path clip-path="url(#pc35cd14007)" d="M 410.528745 280.570039 
C 420.969801 280.570039 430.984625 276.421764 438.367567 269.038822 
C 445.750508 261.65588 449.898784 251.641056 449.898784 241.2 
C 449.898784 230.758944 445.750508 220.74412 438.367567 213.361178 
C 430.984625 205.978236 420.969801 201.829961 410.528745 201.829961 
C 400.087688 201.829961 390.072865 205.978236 382.689923 213.361178 
C 375.306981 220.74412 371.158705 230.758944 371.158705 241.2 
C 371.158705 251.641056 375.306981 261.65588 382.689923 269.038822 
C 390.072865 276.421764 400.087688 280.570039 410.528745 280.570039 
z
" style="fill:#e6e6e6;stroke:#ffffff;stroke-width:2.0;"/>
   </g>
   <g id="patch_3">
    <path d="M 41.603125 286.2 
L 41.603125 7.2 
" style="fill:none;stroke:#000000;stroke-linecap:square;stroke-linejoin:miter;stroke-width:1.5;"/>
   </g>
   <g id="patch_4">
    <path d="M 41.603125 286.2 
L 447.421307 286.2 
" style="fill:none;stroke:#000000;stroke-linecap:square;stroke-linejoin:miter;stroke-width:1.5;"/>
   </g>
   <g id="matplotlib.axis_1">
    <g id="xtick_1">
     <g id="line2d_1">
      <path clip-path="url(#pc35cd14007)" d="M 41.603125 286.2 
L 41.603125 7.2 
" style="fill:none;stroke:#999999;stroke-dasharray:1.000000,3.000000;stroke-dashoffset:0.0;stroke-width:0.5;"/>
     </g>
     <g id="line2d_2">
      <defs>
       <path d="M 0 0 
L 0 3 
" id="mdb40e8e37a" style="stroke:#000000;stroke-width:1.5;"/>
      </defs>
      <g>
       <use style="stroke:#000000;stroke-width:1.5;" x="41.603125" xlink:href="#mdb40e8e37a" y="286.2"/>
      </g>
     </g>
     <g id="text_1">
      <!-- 0 -->
      <defs>
       <path d="M 31.78125 66.40625 
Q 24.171875 66.40625 20.328125 58.90625 
Q 16.5 51.421875 16.5 36.375 
Q 16.5 21.390625 20.328125 13.890625 
Q 24.171875 6.390625 31.78125 6.390625 
Q 39.453125 6.390625 43.28125 13.890625 
Q 47.125 21.390625 47.125 36.375 
Q 47.125 51.421875 43.28125 58.90625 
Q 39.453125 66.40625 31.78125 66.40625 
M 31.78125 74.21875 
Q 44.046875 74.21875 50.515625 64.515625 
Q 56.984375 54.828125 56.984375 36.375 
Q 56.984375 17.96875 50.515625 8.265625 
Q 44.046875 -1.421875 31.78125 -1.421875 
Q 19.53125 -1.421875 13.0625 8.265625 
Q 6.59375 17.96875 6.59375 36.375 
Q 6.59375 54.828125 13.0625 64.515625 
Q 19.53125 74.21875 31.78125 74.21875 
" id="BitstreamVeraSans-Roman-30"/>
      </defs>
      <g transform="translate(38.421875 300.7984375)scale(0.1 -0.1)">
       <use xlink:href="#BitstreamVeraSans-Roman-30"/>
      </g>
     </g>
    </g>
    <g id="xtick_2">
     <g id="line2d_3">
      <path clip-path="url(#pc35cd14007)" d="M 87.718827 286.2 
L 87.718827 7.2 
" style="fill:none;stroke:#999999;stroke-dasharray:1.000000,3.000000;stroke-dashoffset:0.0;stroke-width:0.5;"/>
     </g>
     <g id="line2d_4">
      <g>
       <use style="stroke:#000000;stroke-width:1.5;" x="87.7188274793" xlink:href="#mdb40e8e37a" y="286.2"/>
      </g>
     </g>
     <g id="text_2">
      <!-- 5 -->
      <defs>
       <path d="M 10.796875 72.90625 
L 49.515625 72.90625 
L 49.515625 64.59375 
L 19.828125 64.59375 
L 19.828125 46.734375 
Q 21.96875 47.46875 24.109375 47.828125 
Q 26.265625 48.1875 28.421875 48.1875 
Q 40.625 48.1875 47.75 41.5 
Q 54.890625 34.8125 54.890625 23.390625 
Q 54.890625 11.625 47.5625 5.09375 
Q 40.234375 -1.421875 26.90625 -1.421875 
Q 22.3125 -1.421875 17.546875 -0.640625 
Q 12.796875 0.140625 7.71875 1.703125 
L 7.71875 11.625 
Q 12.109375 9.234375 16.796875 8.0625 
Q 21.484375 6.890625 26.703125 6.890625 
Q 35.15625 6.890625 40.078125 11.328125 
Q 45.015625 15.765625 45.015625 23.390625 
Q 45.015625 31 40.078125 35.4375 
Q 35.15625 39.890625 26.703125 39.890625 
Q 22.75 39.890625 18.8125 39.015625 
Q 14.890625 38.140625 10.796875 36.28125 
z
" id="BitstreamVeraSans-Roman-35"/>
      </defs>
      <g transform="translate(84.5375774793 300.7984375)scale(0.1 -0.1)">
       <use xlink:href="#BitstreamVeraSans-Roman-35"/>
      </g>
     </g>
    </g>
    <g id="xtick_3">
     <g id="line2d_5">
      <path clip-path="url(#pc35cd14007)" d="M 133.83453 286.2 
L 133.83453 7.2 
" style="fill:none;stroke:#999999;stroke-dasharray:1.000000,3.000000;stroke-dashoffset:0.0;stroke-width:0.5;"/>
     </g>
     <g id="line2d_6">
      <g>
       <use style="stroke:#000000;stroke-width:1.5;" x="133.834529959" xlink:href="#mdb40e8e37a" y="286.2"/>
      </g>
     </g>
     <g id="text_3">
      <!-- 10 -->
      <defs>
       <path d="M 12.40625 8.296875 
L 28.515625 8.296875 
L 28.515625 63.921875 
L 10.984375 60.40625 
L 10.984375 69.390625 
L 28.421875 72.90625 
L 38.28125 72.90625 
L 38.28125 8.296875 
L 54.390625 8.296875 
L 54.390625 0 
L 12.40625 0 
z
" id="BitstreamVeraSans-Roman-31"/>
      </defs>
      <g transform="translate(127.472029959 300.7984375)scale(0.1 -0.1)">
       <use xlink:href="#BitstreamVeraSans-Roman-31"/>
       <use x="63.623046875" xlink:href="#BitstreamVeraSans-Roman-30"/>
      </g>
     </g>
    </g>
    <g id="xtick_4">
     <g id="line2d_7">
      <path clip-path="url(#pc35cd14007)" d="M 179.950232 286.2 
L 179.950232 7.2 
" style="fill:none;stroke:#999999;stroke-dasharray:1.000000,3.000000;stroke-dashoffset:0.0;stroke-width:0.5;"/>
     </g>
     <g id="line2d_8">
      <g>
       <use style="stroke:#000000;stroke-width:1.5;" x="179.950232438" xlink:href="#mdb40e8e37a" y="286.2"/>
      </g>
     </g>
     <g id="text_4">
      <!-- 15 -->
      <g transform="translate(173.587732438 300.7984375)scale(0.1 -0.1)">
       <use xlink:href="#BitstreamVeraSans-Roman-31"/>
       <use x="63.623046875" xlink:href="#BitstreamVeraSans-Roman-35"/>
      </g>
     </g>
    </g>
    <g id="xtick_5">
     <g id="line2d_9">
      <path clip-path="url(#pc35cd14007)" d="M 226.065935 286.2 
L 226.065935 7.2 
" style="fill:none;stroke:#999999;stroke-dasharray:1.000000,3.000000;stroke-dashoffset:0.0;stroke-width:0.5;"/>
     </g>
     <g id="line2d_10">
      <g>
       <use style="stroke:#000000;stroke-width:1.5;" x="226.065934917" xlink:href="#mdb40e8e37a" y="286.2"/>
      </g>
     </g>
     <g id="text_5">
      <!-- 20 -->
      <defs>
       <path d="M 19.1875 8.296875 
L 53.609375 8.296875 
L 53.609375 0 
L 7.328125 0 
L 7.328125 8.296875 
Q 12.9375 14.109375 22.625 23.890625 
Q 32.328125 33.6875 34.8125 36.53125 
Q 39.546875 41.84375 41.421875 45.53125 
Q 43.3125 49.21875 43.3125 52.78125 
Q 43.3125 58.59375 39.234375 62.25 
Q 35.15625 65.921875 28.609375 65.921875 
Q 23.96875 65.921875 18.8125 64.3125 
Q 13.671875 62.703125 7.8125 59.421875 
L 7.8125 69.390625 
Q 13.765625 71.78125 18.9375 73 
Q 24.125 74.21875 28.421875 74.21875 
Q 39.75 74.21875 46.484375 68.546875 
Q 53.21875 62.890625 53.21875 53.421875 
Q 53.21875 48.921875 51.53125 44.890625 
Q 49.859375 40.875 45.40625 35.40625 
Q 44.1875 33.984375 37.640625 27.21875 
Q 31.109375 20.453125 19.1875 8.296875 
" id="BitstreamVeraSans-Roman-32"/>
      </defs>
      <g transform="translate(219.703434917 300.7984375)scale(0.1 -0.1)">
       <use xlink:href="#BitstreamVeraSans-Roman-32"/>
       <use x="63.623046875" xlink:href="#BitstreamVeraSans-Roman-30"/>
      </g>
     </g>
    </g>
    <g id="xtick_6">
     <g id="line2d_11">
      <path clip-path="url(#pc35cd14007)" d="M 272.181637 286.2 
L 272.181637 7.2 
" style="fill:none;stroke:#999999;stroke-dasharray:1.000000,3.000000;stroke-dashoffset:0.0;stroke-width:0.5;"/>
     </g>
     <g id="line2d_12">
      <g>
       <use style="stroke:#000000;stroke-width:1.5;" x="272.181637397" xlink:href="#mdb40e8e37a" y="286.2"/>
      </g>
     </g>
     <g id="text_6">
      <!-- 25 -->
      <g transform="translate(265.819137397 300.7984375)scale(0.1 -0.1)">
       <use xlink:href="#BitstreamVeraSans-Roman-32"/>
       <use x="63.623046875" xlink:href="#BitstreamVeraSans-Roman-35"/>
      </g>
     </g>
    </g>
    <g id="xtick_7">
     <g id="line2d_13">
      <path clip-path="url(#pc35cd14007)" d="M 318.29734 286.2 
L 318.29734 7.2 
" style="fill:none;stroke:#999999;stroke-dasharray:1.000000,3.000000;stroke-dashoffset:0.0;stroke-width:0.5;"/>
     </g>
     <g id="line2d_14">
      <g>
       <use style="stroke:#000000;stroke-width:1.5;" x="318.297339876" xlink:href="#mdb40e8e37a" y="286.2"/>
      </g>
     </g>
     <g id="text_7">
      <!-- 30 -->
      <defs>
       <path d="M 40.578125 39.3125 
Q 47.65625 37.796875 51.625 33 
Q 55.609375 28.21875 55.609375 21.1875 
Q 55.609375 10.40625 48.1875 4.484375 
Q 40.765625 -1.421875 27.09375 -1.421875 
Q 22.515625 -1.421875 17.65625 -0.515625 
Q 12.796875 0.390625 7.625 2.203125 
L 7.625 11.71875 
Q 11.71875 9.328125 16.59375 8.109375 
Q 21.484375 6.890625 26.8125 6.890625 
Q 36.078125 6.890625 40.9375 10.546875 
Q 45.796875 14.203125 45.796875 21.1875 
Q 45.796875 27.640625 41.28125 31.265625 
Q 36.765625 34.90625 28.71875 34.90625 
L 20.21875 34.90625 
L 20.21875 43.015625 
L 29.109375 43.015625 
Q 36.375 43.015625 40.234375 45.921875 
Q 44.09375 48.828125 44.09375 54.296875 
Q 44.09375 59.90625 40.109375 62.90625 
Q 36.140625 65.921875 28.71875 65.921875 
Q 24.65625 65.921875 20.015625 65.03125 
Q 15.375 64.15625 9.8125 62.3125 
L 9.8125 71.09375 
Q 15.4375 72.65625 20.34375 73.4375 
Q 25.25 74.21875 29.59375 74.21875 
Q 40.828125 74.21875 47.359375 69.109375 
Q 53.90625 64.015625 53.90625 55.328125 
Q 53.90625 49.265625 50.4375 45.09375 
Q 46.96875 40.921875 40.578125 39.3125 
" id="BitstreamVeraSans-Roman-33"/>
      </defs>
      <g transform="translate(311.934839876 300.7984375)scale(0.1 -0.1)">
       <use xlink:href="#BitstreamVeraSans-Roman-33"/>
       <use x="63.623046875" xlink:href="#BitstreamVeraSans-Roman-30"/>
      </g>
     </g>
    </g>
    <g id="xtick_8">
     <g id="line2d_15">
      <path clip-path="url(#pc35cd14007)" d="M 364.413042 286.2 
L 364.413042 7.2 
" style="fill:none;stroke:#999999;stroke-dasharray:1.000000,3.000000;stroke-dashoffset:0.0;stroke-width:0.5;"/>
     </g>
     <g id="line2d_16">
      <g>
       <use style="stroke:#000000;stroke-width:1.5;" x="364.413042355" xlink:href="#mdb40e8e37a" y="286.2"/>
      </g>
     </g>
     <g id="text_8">
      <!-- 35 -->
      <g transform="translate(358.050542355 300.7984375)scale(0.1 -0.1)">
       <use xlink:href="#BitstreamVeraSans-Roman-33"/>
       <use x="63.623046875" xlink:href="#BitstreamVeraSans-Roman-35"/>
      </g>
     </g>
    </g>
    <g id="xtick_9">
     <g id="line2d_17">
      <path clip-path="url(#pc35cd14007)" d="M 410.528745 286.2 
L 410.528745 7.2 
" style="fill:none;stroke:#999999;stroke-dasharray:1.000000,3.000000;stroke-dashoffset:0.0;stroke-width:0.5;"/>
     </g>
     <g id="line2d_18">
      <g>
       <use style="stroke:#000000;stroke-width:1.5;" x="410.528744835" xlink:href="#mdb40e8e37a" y="286.2"/>
      </g>
     </g>
     <g id="text_9">
      <!-- 40 -->
      <defs>
       <path d="M 37.796875 64.3125 
L 12.890625 25.390625 
L 37.796875 25.390625 
z
M 35.203125 72.90625 
L 47.609375 72.90625 
L 47.609375 25.390625 
L 58.015625 25.390625 
L 58.015625 17.1875 
L 47.609375 17.1875 
L 47.609375 0 
L 37.796875 0 
L 37.796875 17.1875 
L 4.890625 17.1875 
L 4.890625 26.703125 
z
" id="BitstreamVeraSans-Roman-34"/>
      </defs>
      <g transform="translate(404.166244835 300.7984375)scale(0.1 -0.1)">
       <use xlink:href="#BitstreamVeraSans-Roman-34"/>
       <use x="63.623046875" xlink:href="#BitstreamVeraSans-Roman-30"/>
      </g>
     </g>
    </g>
    <g id="text_10">
     <!-- Operations [G-Ops] -->
     <defs>
      <path d="M 18.3125 70.21875 
L 18.3125 54.6875 
L 36.8125 54.6875 
L 36.8125 47.703125 
L 18.3125 47.703125 
L 18.3125 18.015625 
Q 18.3125 11.328125 20.140625 9.421875 
Q 21.96875 7.515625 27.59375 7.515625 
L 36.8125 7.515625 
L 36.8125 0 
L 27.59375 0 
Q 17.1875 0 13.234375 3.875 
Q 9.28125 7.765625 9.28125 18.015625 
L 9.28125 47.703125 
L 2.6875 47.703125 
L 2.6875 54.6875 
L 9.28125 54.6875 
L 9.28125 70.21875 
z
" id="BitstreamVeraSans-Roman-74"/>
      <path d="M 41.109375 46.296875 
Q 39.59375 47.171875 37.8125 47.578125 
Q 36.03125 48 33.890625 48 
Q 26.265625 48 22.1875 43.046875 
Q 18.109375 38.09375 18.109375 28.8125 
L 18.109375 0 
L 9.078125 0 
L 9.078125 54.6875 
L 18.109375 54.6875 
L 18.109375 46.1875 
Q 20.953125 51.171875 25.484375 53.578125 
Q 30.03125 56 36.53125 56 
Q 37.453125 56 38.578125 55.875 
Q 39.703125 55.765625 41.0625 55.515625 
z
" id="BitstreamVeraSans-Roman-72"/>
      <path d="M 44.28125 53.078125 
L 44.28125 44.578125 
Q 40.484375 46.53125 36.375 47.5 
Q 32.28125 48.484375 27.875 48.484375 
Q 21.1875 48.484375 17.84375 46.4375 
Q 14.5 44.390625 14.5 40.28125 
Q 14.5 37.15625 16.890625 35.375 
Q 19.28125 33.59375 26.515625 31.984375 
L 29.59375 31.296875 
Q 39.15625 29.25 43.1875 25.515625 
Q 47.21875 21.78125 47.21875 15.09375 
Q 47.21875 7.46875 41.1875 3.015625 
Q 35.15625 -1.421875 24.609375 -1.421875 
Q 20.21875 -1.421875 15.453125 -0.5625 
Q 10.6875 0.296875 5.421875 2 
L 5.421875 11.28125 
Q 10.40625 8.6875 15.234375 7.390625 
Q 20.0625 6.109375 24.8125 6.109375 
Q 31.15625 6.109375 34.5625 8.28125 
Q 37.984375 10.453125 37.984375 14.40625 
Q 37.984375 18.0625 35.515625 20.015625 
Q 33.0625 21.96875 24.703125 23.78125 
L 21.578125 24.515625 
Q 13.234375 26.265625 9.515625 29.90625 
Q 5.8125 33.546875 5.8125 39.890625 
Q 5.8125 47.609375 11.28125 51.796875 
Q 16.75 56 26.8125 56 
Q 31.78125 56 36.171875 55.265625 
Q 40.578125 54.546875 44.28125 53.078125 
" id="BitstreamVeraSans-Roman-73"/>
      <path d="M 56.203125 29.59375 
L 56.203125 25.203125 
L 14.890625 25.203125 
Q 15.484375 15.921875 20.484375 11.0625 
Q 25.484375 6.203125 34.421875 6.203125 
Q 39.59375 6.203125 44.453125 7.46875 
Q 49.3125 8.734375 54.109375 11.28125 
L 54.109375 2.78125 
Q 49.265625 0.734375 44.1875 -0.34375 
Q 39.109375 -1.421875 33.890625 -1.421875 
Q 20.796875 -1.421875 13.15625 6.1875 
Q 5.515625 13.8125 5.515625 26.8125 
Q 5.515625 40.234375 12.765625 48.109375 
Q 20.015625 56 32.328125 56 
Q 43.359375 56 49.78125 48.890625 
Q 56.203125 41.796875 56.203125 29.59375 
M 47.21875 32.234375 
Q 47.125 39.59375 43.09375 43.984375 
Q 39.0625 48.390625 32.421875 48.390625 
Q 24.90625 48.390625 20.390625 44.140625 
Q 15.875 39.890625 15.1875 32.171875 
z
" id="BitstreamVeraSans-Roman-65"/>
      <path d="M 39.40625 66.21875 
Q 28.65625 66.21875 22.328125 58.203125 
Q 16.015625 50.203125 16.015625 36.375 
Q 16.015625 22.609375 22.328125 14.59375 
Q 28.65625 6.59375 39.40625 6.59375 
Q 50.140625 6.59375 56.421875 14.59375 
Q 62.703125 22.609375 62.703125 36.375 
Q 62.703125 50.203125 56.421875 58.203125 
Q 50.140625 66.21875 39.40625 66.21875 
M 39.40625 74.21875 
Q 54.734375 74.21875 63.90625 63.9375 
Q 73.09375 53.65625 73.09375 36.375 
Q 73.09375 19.140625 63.90625 8.859375 
Q 54.734375 -1.421875 39.40625 -1.421875 
Q 24.03125 -1.421875 14.8125 8.828125 
Q 5.609375 19.09375 5.609375 36.375 
Q 5.609375 53.65625 14.8125 63.9375 
Q 24.03125 74.21875 39.40625 74.21875 
" id="BitstreamVeraSans-Roman-4f"/>
      <path d="M 4.890625 31.390625 
L 31.203125 31.390625 
L 31.203125 23.390625 
L 4.890625 23.390625 
z
" id="BitstreamVeraSans-Roman-2d"/>
      <path d="M 9.421875 54.6875 
L 18.40625 54.6875 
L 18.40625 0 
L 9.421875 0 
z
M 9.421875 75.984375 
L 18.40625 75.984375 
L 18.40625 64.59375 
L 9.421875 64.59375 
z
" id="BitstreamVeraSans-Roman-69"/>
      <path d="M 18.109375 8.203125 
L 18.109375 -20.796875 
L 9.078125 -20.796875 
L 9.078125 54.6875 
L 18.109375 54.6875 
L 18.109375 46.390625 
Q 20.953125 51.265625 25.265625 53.625 
Q 29.59375 56 35.59375 56 
Q 45.5625 56 51.78125 48.09375 
Q 58.015625 40.1875 58.015625 27.296875 
Q 58.015625 14.40625 51.78125 6.484375 
Q 45.5625 -1.421875 35.59375 -1.421875 
Q 29.59375 -1.421875 25.265625 0.953125 
Q 20.953125 3.328125 18.109375 8.203125 
M 48.6875 27.296875 
Q 48.6875 37.203125 44.609375 42.84375 
Q 40.53125 48.484375 33.40625 48.484375 
Q 26.265625 48.484375 22.1875 42.84375 
Q 18.109375 37.203125 18.109375 27.296875 
Q 18.109375 17.390625 22.1875 11.75 
Q 26.265625 6.109375 33.40625 6.109375 
Q 40.53125 6.109375 44.609375 11.75 
Q 48.6875 17.390625 48.6875 27.296875 
" id="BitstreamVeraSans-Roman-70"/>
      <path id="BitstreamVeraSans-Roman-20"/>
      <path d="M 30.421875 75.984375 
L 30.421875 -13.1875 
L 9.71875 -13.1875 
L 9.71875 -6.203125 
L 21.390625 -6.203125 
L 21.390625 69 
L 9.71875 69 
L 9.71875 75.984375 
z
" id="BitstreamVeraSans-Roman-5d"/>
      <path d="M 54.890625 33.015625 
L 54.890625 0 
L 45.90625 0 
L 45.90625 32.71875 
Q 45.90625 40.484375 42.875 44.328125 
Q 39.84375 48.1875 33.796875 48.1875 
Q 26.515625 48.1875 22.3125 43.546875 
Q 18.109375 38.921875 18.109375 30.90625 
L 18.109375 0 
L 9.078125 0 
L 9.078125 54.6875 
L 18.109375 54.6875 
L 18.109375 46.1875 
Q 21.34375 51.125 25.703125 53.5625 
Q 30.078125 56 35.796875 56 
Q 45.21875 56 50.046875 50.171875 
Q 54.890625 44.34375 54.890625 33.015625 
" id="BitstreamVeraSans-Roman-6e"/>
      <path d="M 30.609375 48.390625 
Q 23.390625 48.390625 19.1875 42.75 
Q 14.984375 37.109375 14.984375 27.296875 
Q 14.984375 17.484375 19.15625 11.84375 
Q 23.34375 6.203125 30.609375 6.203125 
Q 37.796875 6.203125 41.984375 11.859375 
Q 46.1875 17.53125 46.1875 27.296875 
Q 46.1875 37.015625 41.984375 42.703125 
Q 37.796875 48.390625 30.609375 48.390625 
M 30.609375 56 
Q 42.328125 56 49.015625 48.375 
Q 55.71875 40.765625 55.71875 27.296875 
Q 55.71875 13.875 49.015625 6.21875 
Q 42.328125 -1.421875 30.609375 -1.421875 
Q 18.84375 -1.421875 12.171875 6.21875 
Q 5.515625 13.875 5.515625 27.296875 
Q 5.515625 40.765625 12.171875 48.375 
Q 18.84375 56 30.609375 56 
" id="BitstreamVeraSans-Roman-6f"/>
      <path d="M 8.59375 75.984375 
L 29.296875 75.984375 
L 29.296875 69 
L 17.578125 69 
L 17.578125 -6.203125 
L 29.296875 -6.203125 
L 29.296875 -13.1875 
L 8.59375 -13.1875 
z
" id="BitstreamVeraSans-Roman-5b"/>
      <path d="M 59.515625 10.40625 
L 59.515625 29.984375 
L 43.40625 29.984375 
L 43.40625 38.09375 
L 69.28125 38.09375 
L 69.28125 6.78125 
Q 63.578125 2.734375 56.6875 0.65625 
Q 49.8125 -1.421875 42 -1.421875 
Q 24.90625 -1.421875 15.25 8.5625 
Q 5.609375 18.5625 5.609375 36.375 
Q 5.609375 54.25 15.25 64.234375 
Q 24.90625 74.21875 42 74.21875 
Q 49.125 74.21875 55.546875 72.453125 
Q 61.96875 70.703125 67.390625 67.28125 
L 67.390625 56.78125 
Q 61.921875 61.421875 55.765625 63.765625 
Q 49.609375 66.109375 42.828125 66.109375 
Q 29.4375 66.109375 22.71875 58.640625 
Q 16.015625 51.171875 16.015625 36.375 
Q 16.015625 21.625 22.71875 14.15625 
Q 29.4375 6.6875 42.828125 6.6875 
Q 48.046875 6.6875 52.140625 7.59375 
Q 56.25 8.5 59.515625 10.40625 
" id="BitstreamVeraSans-Roman-47"/>
      <path d="M 34.28125 27.484375 
Q 23.390625 27.484375 19.1875 25 
Q 14.984375 22.515625 14.984375 16.5 
Q 14.984375 11.71875 18.140625 8.90625 
Q 21.296875 6.109375 26.703125 6.109375 
Q 34.1875 6.109375 38.703125 11.40625 
Q 43.21875 16.703125 43.21875 25.484375 
L 43.21875 27.484375 
z
M 52.203125 31.203125 
L 52.203125 0 
L 43.21875 0 
L 43.21875 8.296875 
Q 40.140625 3.328125 35.546875 0.953125 
Q 30.953125 -1.421875 24.3125 -1.421875 
Q 15.921875 -1.421875 10.953125 3.296875 
Q 6 8.015625 6 15.921875 
Q 6 25.140625 12.171875 29.828125 
Q 18.359375 34.515625 30.609375 34.515625 
L 43.21875 34.515625 
L 43.21875 35.40625 
Q 43.21875 41.609375 39.140625 45 
Q 35.0625 48.390625 27.6875 48.390625 
Q 23 48.390625 18.546875 47.265625 
Q 14.109375 46.140625 10.015625 43.890625 
L 10.015625 52.203125 
Q 14.9375 54.109375 19.578125 55.046875 
Q 24.21875 56 28.609375 56 
Q 40.484375 56 46.34375 49.84375 
Q 52.203125 43.703125 52.203125 31.203125 
" id="BitstreamVeraSans-Roman-61"/>
     </defs>
     <g transform="translate(196.138778409 315.4765625)scale(0.1 -0.1)">
      <use xlink:href="#BitstreamVeraSans-Roman-4f"/>
      <use x="78.7109375" xlink:href="#BitstreamVeraSans-Roman-70"/>
      <use x="142.1875" xlink:href="#BitstreamVeraSans-Roman-65"/>
      <use x="203.7109375" xlink:href="#BitstreamVeraSans-Roman-72"/>
      <use x="244.82421875" xlink:href="#BitstreamVeraSans-Roman-61"/>
      <use x="306.103515625" xlink:href="#BitstreamVeraSans-Roman-74"/>
      <use x="345.3125" xlink:href="#BitstreamVeraSans-Roman-69"/>
      <use x="373.095703125" xlink:href="#BitstreamVeraSans-Roman-6f"/>
      <use x="434.27734375" xlink:href="#BitstreamVeraSans-Roman-6e"/>
      <use x="497.65625" xlink:href="#BitstreamVeraSans-Roman-73"/>
      <use x="549.755859375" xlink:href="#BitstreamVeraSans-Roman-20"/>
      <use x="581.54296875" xlink:href="#BitstreamVeraSans-Roman-5b"/>
      <use x="620.556640625" xlink:href="#BitstreamVeraSans-Roman-47"/>
      <use x="698.046875" xlink:href="#BitstreamVeraSans-Roman-2d"/>
      <use x="734.162109375" xlink:href="#BitstreamVeraSans-Roman-4f"/>
      <use x="812.873046875" xlink:href="#BitstreamVeraSans-Roman-70"/>
      <use x="876.349609375" xlink:href="#BitstreamVeraSans-Roman-73"/>
      <use x="928.44921875" xlink:href="#BitstreamVeraSans-Roman-5d"/>
     </g>
    </g>
   </g>
   <g id="matplotlib.axis_2">
    <g id="ytick_1">
     <g id="line2d_19">
      <path clip-path="url(#pc35cd14007)" d="M 41.603125 286.2 
L 447.421307 286.2 
" style="fill:none;stroke:#999999;stroke-dasharray:1.000000,3.000000;stroke-dashoffset:0.0;stroke-width:0.5;"/>
     </g>
     <g id="line2d_20">
      <defs>
       <path d="M 0 0 
L -3 0 
" id="mf926f5bf67" style="stroke:#000000;stroke-width:1.5;"/>
      </defs>
      <g>
       <use style="stroke:#000000;stroke-width:1.5;" x="41.603125" xlink:href="#mf926f5bf67" y="286.2"/>
      </g>
     </g>
     <g id="text_11">
      <!-- 50 -->
      <g transform="translate(21.878125 288.959375)scale(0.1 -0.1)">
       <use xlink:href="#BitstreamVeraSans-Roman-35"/>
       <use x="63.623046875" xlink:href="#BitstreamVeraSans-Roman-30"/>
      </g>
     </g>
    </g>
    <g id="ytick_2">
     <g id="line2d_21">
      <path clip-path="url(#pc35cd14007)" d="M 41.603125 241.2 
L 447.421307 241.2 
" style="fill:none;stroke:#999999;stroke-dasharray:1.000000,3.000000;stroke-dashoffset:0.0;stroke-width:0.5;"/>
     </g>
     <g id="line2d_22">
      <g>
       <use style="stroke:#000000;stroke-width:1.5;" x="41.603125" xlink:href="#mf926f5bf67" y="241.2"/>
      </g>
     </g>
     <g id="text_12">
      <!-- 55 -->
      <g transform="translate(21.878125 243.959375)scale(0.1 -0.1)">
       <use xlink:href="#BitstreamVeraSans-Roman-35"/>
       <use x="63.623046875" xlink:href="#BitstreamVeraSans-Roman-35"/>
      </g>
     </g>
    </g>
    <g id="ytick_3">
     <g id="line2d_23">
      <path clip-path="url(#pc35cd14007)" d="M 41.603125 196.2 
L 447.421307 196.2 
" style="fill:none;stroke:#999999;stroke-dasharray:1.000000,3.000000;stroke-dashoffset:0.0;stroke-width:0.5;"/>
     </g>
     <g id="line2d_24">
      <g>
       <use style="stroke:#000000;stroke-width:1.5;" x="41.603125" xlink:href="#mf926f5bf67" y="196.2"/>
      </g>
     </g>
     <g id="text_13">
      <!-- 60 -->
      <defs>
       <path d="M 33.015625 40.375 
Q 26.375 40.375 22.484375 35.828125 
Q 18.609375 31.296875 18.609375 23.390625 
Q 18.609375 15.53125 22.484375 10.953125 
Q 26.375 6.390625 33.015625 6.390625 
Q 39.65625 6.390625 43.53125 10.953125 
Q 47.40625 15.53125 47.40625 23.390625 
Q 47.40625 31.296875 43.53125 35.828125 
Q 39.65625 40.375 33.015625 40.375 
M 52.59375 71.296875 
L 52.59375 62.3125 
Q 48.875 64.0625 45.09375 64.984375 
Q 41.3125 65.921875 37.59375 65.921875 
Q 27.828125 65.921875 22.671875 59.328125 
Q 17.53125 52.734375 16.796875 39.40625 
Q 19.671875 43.65625 24.015625 45.921875 
Q 28.375 48.1875 33.59375 48.1875 
Q 44.578125 48.1875 50.953125 41.515625 
Q 57.328125 34.859375 57.328125 23.390625 
Q 57.328125 12.15625 50.6875 5.359375 
Q 44.046875 -1.421875 33.015625 -1.421875 
Q 20.359375 -1.421875 13.671875 8.265625 
Q 6.984375 17.96875 6.984375 36.375 
Q 6.984375 53.65625 15.1875 63.9375 
Q 23.390625 74.21875 37.203125 74.21875 
Q 40.921875 74.21875 44.703125 73.484375 
Q 48.484375 72.75 52.59375 71.296875 
" id="BitstreamVeraSans-Roman-36"/>
      </defs>
      <g transform="translate(21.878125 198.959375)scale(0.1 -0.1)">
       <use xlink:href="#BitstreamVeraSans-Roman-36"/>
       <use x="63.623046875" xlink:href="#BitstreamVeraSans-Roman-30"/>
      </g>
     </g>
    </g>
    <g id="ytick_4">
     <g id="line2d_25">
      <path clip-path="url(#pc35cd14007)" d="M 41.603125 151.2 
L 447.421307 151.2 
" style="fill:none;stroke:#999999;stroke-dasharray:1.000000,3.000000;stroke-dashoffset:0.0;stroke-width:0.5;"/>
     </g>
     <g id="line2d_26">
      <g>
       <use style="stroke:#000000;stroke-width:1.5;" x="41.603125" xlink:href="#mf926f5bf67" y="151.2"/>
      </g>
     </g>
     <g id="text_14">
      <!-- 65 -->
      <g transform="translate(21.878125 153.959375)scale(0.1 -0.1)">
       <use xlink:href="#BitstreamVeraSans-Roman-36"/>
       <use x="63.623046875" xlink:href="#BitstreamVeraSans-Roman-35"/>
      </g>
     </g>
    </g>
    <g id="ytick_5">
     <g id="line2d_27">
      <path clip-path="url(#pc35cd14007)" d="M 41.603125 106.2 
L 447.421307 106.2 
" style="fill:none;stroke:#999999;stroke-dasharray:1.000000,3.000000;stroke-dashoffset:0.0;stroke-width:0.5;"/>
     </g>
     <g id="line2d_28">
      <g>
       <use style="stroke:#000000;stroke-width:1.5;" x="41.603125" xlink:href="#mf926f5bf67" y="106.2"/>
      </g>
     </g>
     <g id="text_15">
      <!-- 70 -->
      <defs>
       <path d="M 8.203125 72.90625 
L 55.078125 72.90625 
L 55.078125 68.703125 
L 28.609375 0 
L 18.3125 0 
L 43.21875 64.59375 
L 8.203125 64.59375 
z
" id="BitstreamVeraSans-Roman-37"/>
      </defs>
      <g transform="translate(21.878125 108.959375)scale(0.1 -0.1)">
       <use xlink:href="#BitstreamVeraSans-Roman-37"/>
       <use x="63.623046875" xlink:href="#BitstreamVeraSans-Roman-30"/>
      </g>
     </g>
    </g>
    <g id="ytick_6">
     <g id="line2d_29">
      <path clip-path="url(#pc35cd14007)" d="M 41.603125 61.2 
L 447.421307 61.2 
" style="fill:none;stroke:#999999;stroke-dasharray:1.000000,3.000000;stroke-dashoffset:0.0;stroke-width:0.5;"/>
     </g>
     <g id="line2d_30">
      <g>
       <use style="stroke:#000000;stroke-width:1.5;" x="41.603125" xlink:href="#mf926f5bf67" y="61.2"/>
      </g>
     </g>
     <g id="text_16">
      <!-- 75 -->
      <g transform="translate(21.878125 63.959375)scale(0.1 -0.1)">
       <use xlink:href="#BitstreamVeraSans-Roman-37"/>
       <use x="63.623046875" xlink:href="#BitstreamVeraSans-Roman-35"/>
      </g>
     </g>
    </g>
    <g id="ytick_7">
     <g id="line2d_31">
      <path clip-path="url(#pc35cd14007)" d="M 41.603125 16.2 
L 447.421307 16.2 
" style="fill:none;stroke:#999999;stroke-dasharray:1.000000,3.000000;stroke-dashoffset:0.0;stroke-width:0.5;"/>
     </g>
     <g id="line2d_32">
      <g>
       <use style="stroke:#000000;stroke-width:1.5;" x="41.603125" xlink:href="#mf926f5bf67" y="16.2"/>
      </g>
     </g>
     <g id="text_17">
      <!-- 80 -->
      <defs>
       <path d="M 31.78125 34.625 
Q 24.75 34.625 20.71875 30.859375 
Q 16.703125 27.09375 16.703125 20.515625 
Q 16.703125 13.921875 20.71875 10.15625 
Q 24.75 6.390625 31.78125 6.390625 
Q 38.8125 6.390625 42.859375 10.171875 
Q 46.921875 13.96875 46.921875 20.515625 
Q 46.921875 27.09375 42.890625 30.859375 
Q 38.875 34.625 31.78125 34.625 
M 21.921875 38.8125 
Q 15.578125 40.375 12.03125 44.71875 
Q 8.5 49.078125 8.5 55.328125 
Q 8.5 64.0625 14.71875 69.140625 
Q 20.953125 74.21875 31.78125 74.21875 
Q 42.671875 74.21875 48.875 69.140625 
Q 55.078125 64.0625 55.078125 55.328125 
Q 55.078125 49.078125 51.53125 44.71875 
Q 48 40.375 41.703125 38.8125 
Q 48.828125 37.15625 52.796875 32.3125 
Q 56.78125 27.484375 56.78125 20.515625 
Q 56.78125 9.90625 50.3125 4.234375 
Q 43.84375 -1.421875 31.78125 -1.421875 
Q 19.734375 -1.421875 13.25 4.234375 
Q 6.78125 9.90625 6.78125 20.515625 
Q 6.78125 27.484375 10.78125 32.3125 
Q 14.796875 37.15625 21.921875 38.8125 
M 18.3125 54.390625 
Q 18.3125 48.734375 21.84375 45.5625 
Q 25.390625 42.390625 31.78125 42.390625 
Q 38.140625 42.390625 41.71875 45.5625 
Q 45.3125 48.734375 45.3125 54.390625 
Q 45.3125 60.0625 41.71875 63.234375 
Q 38.140625 66.40625 31.78125 66.40625 
Q 25.390625 66.40625 21.84375 63.234375 
Q 18.3125 60.0625 18.3125 54.390625 
" id="BitstreamVeraSans-Roman-38"/>
      </defs>
      <g transform="translate(21.878125 18.959375)scale(0.1 -0.1)">
       <use xlink:href="#BitstreamVeraSans-Roman-38"/>
       <use x="63.623046875" xlink:href="#BitstreamVeraSans-Roman-30"/>
      </g>
     </g>
    </g>
    <g id="text_18">
     <!-- Top-1 accuracy [%] -->
     <defs>
      <path d="M 8.5 21.578125 
L 8.5 54.6875 
L 17.484375 54.6875 
L 17.484375 21.921875 
Q 17.484375 14.15625 20.5 10.265625 
Q 23.53125 6.390625 29.59375 6.390625 
Q 36.859375 6.390625 41.078125 11.03125 
Q 45.3125 15.671875 45.3125 23.6875 
L 45.3125 54.6875 
L 54.296875 54.6875 
L 54.296875 0 
L 45.3125 0 
L 45.3125 8.40625 
Q 42.046875 3.421875 37.71875 1 
Q 33.40625 -1.421875 27.6875 -1.421875 
Q 18.265625 -1.421875 13.375 4.4375 
Q 8.5 10.296875 8.5 21.578125 
" id="BitstreamVeraSans-Roman-75"/>
      <path d="M 48.78125 52.59375 
L 48.78125 44.1875 
Q 44.96875 46.296875 41.140625 47.34375 
Q 37.3125 48.390625 33.40625 48.390625 
Q 24.65625 48.390625 19.8125 42.84375 
Q 14.984375 37.3125 14.984375 27.296875 
Q 14.984375 17.28125 19.8125 11.734375 
Q 24.65625 6.203125 33.40625 6.203125 
Q 37.3125 6.203125 41.140625 7.25 
Q 44.96875 8.296875 48.78125 10.40625 
L 48.78125 2.09375 
Q 45.015625 0.34375 40.984375 -0.53125 
Q 36.96875 -1.421875 32.421875 -1.421875 
Q 20.0625 -1.421875 12.78125 6.34375 
Q 5.515625 14.109375 5.515625 27.296875 
Q 5.515625 40.671875 12.859375 48.328125 
Q 20.21875 56 33.015625 56 
Q 37.15625 56 41.109375 55.140625 
Q 45.0625 54.296875 48.78125 52.59375 
" id="BitstreamVeraSans-Roman-63"/>
      <path d="M -0.296875 72.90625 
L 61.375 72.90625 
L 61.375 64.59375 
L 35.5 64.59375 
L 35.5 0 
L 25.59375 0 
L 25.59375 64.59375 
L -0.296875 64.59375 
z
" id="BitstreamVeraSans-Roman-54"/>
      <path d="M 32.171875 -5.078125 
Q 28.375 -14.84375 24.75 -17.8125 
Q 21.140625 -20.796875 15.09375 -20.796875 
L 7.90625 -20.796875 
L 7.90625 -13.28125 
L 13.1875 -13.28125 
Q 16.890625 -13.28125 18.9375 -11.515625 
Q 21 -9.765625 23.484375 -3.21875 
L 25.09375 0.875 
L 2.984375 54.6875 
L 12.5 54.6875 
L 29.59375 11.921875 
L 46.6875 54.6875 
L 56.203125 54.6875 
z
" id="BitstreamVeraSans-Roman-79"/>
      <path d="M 72.703125 32.078125 
Q 68.453125 32.078125 66.03125 28.46875 
Q 63.625 24.859375 63.625 18.40625 
Q 63.625 12.0625 66.03125 8.421875 
Q 68.453125 4.78125 72.703125 4.78125 
Q 76.859375 4.78125 79.265625 8.421875 
Q 81.6875 12.0625 81.6875 18.40625 
Q 81.6875 24.8125 79.265625 28.4375 
Q 76.859375 32.078125 72.703125 32.078125 
M 72.703125 38.28125 
Q 80.421875 38.28125 84.953125 32.90625 
Q 89.5 27.546875 89.5 18.40625 
Q 89.5 9.28125 84.9375 3.921875 
Q 80.375 -1.421875 72.703125 -1.421875 
Q 64.890625 -1.421875 60.34375 3.921875 
Q 55.8125 9.28125 55.8125 18.40625 
Q 55.8125 27.59375 60.375 32.9375 
Q 64.9375 38.28125 72.703125 38.28125 
M 22.3125 68.015625 
Q 18.109375 68.015625 15.6875 64.375 
Q 13.28125 60.75 13.28125 54.390625 
Q 13.28125 47.953125 15.671875 44.328125 
Q 18.0625 40.71875 22.3125 40.71875 
Q 26.5625 40.71875 28.96875 44.328125 
Q 31.390625 47.953125 31.390625 54.390625 
Q 31.390625 60.6875 28.953125 64.34375 
Q 26.515625 68.015625 22.3125 68.015625 
M 66.40625 74.21875 
L 74.21875 74.21875 
L 28.609375 -1.421875 
L 20.796875 -1.421875 
z
M 22.3125 74.21875 
Q 30.03125 74.21875 34.609375 68.875 
Q 39.203125 63.53125 39.203125 54.390625 
Q 39.203125 45.171875 34.640625 39.84375 
Q 30.078125 34.515625 22.3125 34.515625 
Q 14.546875 34.515625 10.03125 39.859375 
Q 5.515625 45.21875 5.515625 54.390625 
Q 5.515625 63.484375 10.046875 68.84375 
Q 14.59375 74.21875 22.3125 74.21875 
" id="BitstreamVeraSans-Roman-25"/>
     </defs>
     <g transform="translate(14.7984375 195.34921875)rotate(-90.0)scale(0.1 -0.1)">
      <use xlink:href="#BitstreamVeraSans-Roman-54"/>
      <use x="60.818359375" xlink:href="#BitstreamVeraSans-Roman-6f"/>
      <use x="122.0" xlink:href="#BitstreamVeraSans-Roman-70"/>
      <use x="185.4765625" xlink:href="#BitstreamVeraSans-Roman-2d"/>
      <use x="221.560546875" xlink:href="#BitstreamVeraSans-Roman-31"/>
      <use x="285.18359375" xlink:href="#BitstreamVeraSans-Roman-20"/>
      <use x="316.970703125" xlink:href="#BitstreamVeraSans-Roman-61"/>
      <use x="378.25" xlink:href="#BitstreamVeraSans-Roman-63"/>
      <use x="433.23046875" xlink:href="#BitstreamVeraSans-Roman-63"/>
      <use x="488.2109375" xlink:href="#BitstreamVeraSans-Roman-75"/>
      <use x="551.58984375" xlink:href="#BitstreamVeraSans-Roman-72"/>
      <use x="592.703125" xlink:href="#BitstreamVeraSans-Roman-61"/>
      <use x="653.982421875" xlink:href="#BitstreamVeraSans-Roman-63"/>
      <use x="708.962890625" xlink:href="#BitstreamVeraSans-Roman-79"/>
      <use x="768.142578125" xlink:href="#BitstreamVeraSans-Roman-20"/>
      <use x="799.9296875" xlink:href="#BitstreamVeraSans-Roman-5b"/>
      <use x="838.943359375" xlink:href="#BitstreamVeraSans-Roman-25"/>
      <use x="933.962890625" xlink:href="#BitstreamVeraSans-Roman-5d"/>
     </g>
    </g>
   </g>
   <g id="text_19">
    <!-- AlexNet -->
    <defs>
     <path d="M 56.25 0 
L 44.671875 0 
L 29.203125 20.953125 
L 13.625 0 
L 2.9375 0 
L 24.21875 27.203125 
L 3.125 54.546875 
L 14.703125 54.546875 
L 30.078125 33.9375 
L 45.515625 54.546875 
L 56.25 54.546875 
L 34.8125 27.6875 
z
" id="Verdana-78"/>
     <path d="M 54.6875 26.3125 
L 14.5 26.3125 
Q 14.5 21.296875 16.015625 17.546875 
Q 17.53125 13.8125 20.171875 11.421875 
Q 22.703125 9.078125 26.1875 7.90625 
Q 29.6875 6.734375 33.890625 6.734375 
Q 39.453125 6.734375 45.09375 8.953125 
Q 50.734375 11.1875 53.125 13.328125 
L 53.609375 13.328125 
L 53.609375 3.328125 
Q 48.96875 1.375 44.140625 0.046875 
Q 39.3125 -1.265625 33.984375 -1.265625 
Q 20.40625 -1.265625 12.78125 6.078125 
Q 5.171875 13.421875 5.171875 26.953125 
Q 5.171875 40.328125 12.46875 48.1875 
Q 19.78125 56.0625 31.6875 56.0625 
Q 42.71875 56.0625 48.703125 49.609375 
Q 54.6875 43.171875 54.6875 31.296875 
z
M 45.75 33.34375 
Q 45.703125 40.578125 42.109375 44.53125 
Q 38.53125 48.484375 31.203125 48.484375 
Q 23.828125 48.484375 19.453125 44.140625 
Q 15.09375 39.796875 14.5 33.34375 
z
" id="Verdana-65"/>
     <path d="M 18.3125 0 
L 9.125 0 
L 9.125 75.984375 
L 18.3125 75.984375 
z
" id="Verdana-6c"/>
     <path d="M 67.09375 0 
L 56.78125 0 
L 49.65625 20.265625 
L 18.21875 20.265625 
L 11.078125 0 
L 1.265625 0 
L 27.734375 72.703125 
L 40.625 72.703125 
z
M 46.6875 28.5625 
L 33.9375 64.265625 
L 21.140625 28.5625 
z
" id="Verdana-41"/>
     <path d="M 37.359375 0.484375 
Q 34.765625 -0.203125 31.703125 -0.640625 
Q 28.65625 -1.078125 26.265625 -1.078125 
Q 17.921875 -1.078125 13.578125 3.40625 
Q 9.234375 7.90625 9.234375 17.828125 
L 9.234375 46.828125 
L 3.03125 46.828125 
L 3.03125 54.546875 
L 9.234375 54.546875 
L 9.234375 70.21875 
L 18.40625 70.21875 
L 18.40625 54.546875 
L 37.359375 54.546875 
L 37.359375 46.828125 
L 18.40625 46.828125 
L 18.40625 21.96875 
Q 18.40625 17.671875 18.59375 15.25 
Q 18.796875 12.84375 19.96875 10.75 
Q 21.046875 8.796875 22.921875 7.890625 
Q 24.8125 6.984375 28.65625 6.984375 
Q 30.90625 6.984375 33.34375 7.640625 
Q 35.796875 8.296875 36.859375 8.734375 
L 37.359375 8.734375 
z
" id="Verdana-74"/>
     <path d="M 65.234375 0 
L 53.265625 0 
L 18.796875 65.046875 
L 18.796875 0 
L 9.765625 0 
L 9.765625 72.703125 
L 24.75 72.703125 
L 56.203125 13.328125 
L 56.203125 72.703125 
L 65.234375 72.703125 
z
" id="Verdana-4e"/>
    </defs>
    <g transform="translate(92.2596872708 247.782260132)scale(0.11 -0.11)">
     <use xlink:href="#Verdana-41"/>
     <use x="68.359375" xlink:href="#Verdana-6c"/>
     <use x="95.80078125" xlink:href="#Verdana-65"/>
     <use x="155.37109375" xlink:href="#Verdana-78"/>
     <use x="214.55078125" xlink:href="#Verdana-4e"/>
     <use x="289.35546875" xlink:href="#Verdana-65"/>
     <use x="348.92578125" xlink:href="#Verdana-74"/>
    </g>
   </g>
   <g id="text_20">
    <!-- BN-AlexNet -->
    <defs>
     <path d="M 64.59375 22.359375 
Q 64.59375 16.9375 62.546875 12.78125 
Q 60.5 8.640625 57.03125 5.953125 
Q 52.9375 2.734375 48.015625 1.359375 
Q 43.109375 0 35.546875 0 
L 9.765625 0 
L 9.765625 72.703125 
L 31.296875 72.703125 
Q 39.265625 72.703125 43.21875 72.109375 
Q 47.171875 71.53125 50.78125 69.671875 
Q 54.78125 67.578125 56.59375 64.28125 
Q 58.40625 60.984375 58.40625 56.390625 
Q 58.40625 51.21875 55.765625 47.578125 
Q 53.125 43.953125 48.734375 41.75 
L 48.734375 41.359375 
Q 56.109375 39.84375 60.34375 34.890625 
Q 64.59375 29.9375 64.59375 22.359375 
M 48.34375 55.125 
Q 48.34375 57.765625 47.453125 59.5625 
Q 46.578125 61.375 44.625 62.5 
Q 42.328125 63.8125 39.0625 64.125 
Q 35.796875 64.453125 30.953125 64.453125 
L 19.4375 64.453125 
L 19.4375 43.453125 
L 31.9375 43.453125 
Q 36.46875 43.453125 39.15625 43.921875 
Q 41.84375 44.390625 44.140625 45.84375 
Q 46.4375 47.3125 47.390625 49.625 
Q 48.34375 51.953125 48.34375 55.125 
M 54.546875 21.96875 
Q 54.546875 26.375 53.21875 28.953125 
Q 51.90625 31.546875 48.4375 33.34375 
Q 46.09375 34.578125 42.75 34.9375 
Q 39.40625 35.296875 34.625 35.296875 
L 19.4375 35.296875 
L 19.4375 8.25 
L 32.234375 8.25 
Q 38.578125 8.25 42.625 8.90625 
Q 46.6875 9.578125 49.265625 11.328125 
Q 52 13.234375 53.265625 15.671875 
Q 54.546875 18.109375 54.546875 21.96875 
" id="Verdana-42"/>
     <path d="M 37.9375 27.390625 
L 7.46875 27.390625 
L 7.46875 36.234375 
L 37.9375 36.234375 
z
" id="Verdana-2d"/>
    </defs>
    <g transform="translate(83.273273602 229.872279358)scale(0.11 -0.11)">
     <use xlink:href="#Verdana-42"/>
     <use x="68.5546875" xlink:href="#Verdana-4e"/>
     <use x="143.359375" xlink:href="#Verdana-2d"/>
     <use x="188.73828125" xlink:href="#Verdana-41"/>
     <use x="257.09765625" xlink:href="#Verdana-6c"/>
     <use x="284.5390625" xlink:href="#Verdana-65"/>
     <use x="344.109375" xlink:href="#Verdana-78"/>
     <use x="403.2890625" xlink:href="#Verdana-4e"/>
     <use x="478.09375" xlink:href="#Verdana-65"/>
     <use x="537.6640625" xlink:href="#Verdana-74"/>
    </g>
   </g>
   <g id="text_21">
    <!-- BN-NIN -->
    <defs>
     <path d="M 35.40625 0 
L 6.6875 0 
L 6.6875 7.421875 
L 16.21875 7.421875 
L 16.21875 65.28125 
L 6.6875 65.28125 
L 6.6875 72.703125 
L 35.40625 72.703125 
L 35.40625 65.28125 
L 25.875 65.28125 
L 25.875 7.421875 
L 35.40625 7.421875 
z
" id="Verdana-49"/>
    </defs>
    <g transform="translate(78.5694720371 175.692275238)scale(0.11 -0.11)">
     <use xlink:href="#Verdana-42"/>
     <use x="68.5546875" xlink:href="#Verdana-4e"/>
     <use x="143.359375" xlink:href="#Verdana-2d"/>
     <use x="188.76953125" xlink:href="#Verdana-4e"/>
     <use x="263.57421875" xlink:href="#Verdana-49"/>
     <use x="305.6640625" xlink:href="#Verdana-4e"/>
    </g>
   </g>
   <g id="text_22">
    <!-- ResNet-18 -->
    <defs>
     <path d="M 48 15.71875 
Q 48 8.25 41.8125 3.46875 
Q 35.640625 -1.3125 24.953125 -1.3125 
Q 18.890625 -1.3125 13.84375 0.125 
Q 8.796875 1.5625 5.375 3.265625 
L 5.375 13.578125 
L 5.859375 13.578125 
Q 10.203125 10.296875 15.515625 8.375 
Q 20.84375 6.453125 25.734375 6.453125 
Q 31.78125 6.453125 35.203125 8.40625 
Q 38.625 10.359375 38.625 14.546875 
Q 38.625 17.78125 36.765625 19.4375 
Q 34.90625 21.09375 29.640625 22.265625 
Q 27.6875 22.703125 24.53125 23.28125 
Q 21.390625 23.875 18.796875 24.5625 
Q 11.625 26.46875 8.609375 30.15625 
Q 5.609375 33.84375 5.609375 39.203125 
Q 5.609375 42.578125 7 45.546875 
Q 8.40625 48.53125 11.234375 50.875 
Q 13.96875 53.171875 18.1875 54.515625 
Q 22.40625 55.859375 27.640625 55.859375 
Q 32.515625 55.859375 37.515625 54.65625 
Q 42.53125 53.46875 45.84375 51.765625 
L 45.84375 41.9375 
L 45.359375 41.9375 
Q 41.84375 44.53125 36.8125 46.3125 
Q 31.78125 48.09375 26.953125 48.09375 
Q 21.921875 48.09375 18.453125 46.15625 
Q 14.984375 44.234375 14.984375 40.4375 
Q 14.984375 37.0625 17.09375 35.359375 
Q 19.140625 33.640625 23.734375 32.5625 
Q 26.265625 31.984375 29.40625 31.390625 
Q 32.5625 30.8125 34.671875 30.328125 
Q 41.0625 28.859375 44.53125 25.296875 
Q 48 21.6875 48 15.71875 
" id="Verdana-73"/>
     <path d="M 69.921875 0 
L 57.375 0 
L 33.0625 28.90625 
L 19.4375 28.90625 
L 19.4375 0 
L 9.765625 0 
L 9.765625 72.703125 
L 30.125 72.703125 
Q 36.71875 72.703125 41.109375 71.84375 
Q 45.515625 71 49.03125 68.796875 
Q 52.984375 66.3125 55.203125 62.515625 
Q 57.421875 58.734375 57.421875 52.9375 
Q 57.421875 45.0625 53.46875 39.765625 
Q 49.515625 34.46875 42.578125 31.78125 
z
M 47.3125 52.25 
Q 47.3125 55.375 46.21875 57.78125 
Q 45.125 60.203125 42.578125 61.859375 
Q 40.484375 63.28125 37.59375 63.84375 
Q 34.71875 64.40625 30.8125 64.40625 
L 19.4375 64.40625 
L 19.4375 36.96875 
L 29.203125 36.96875 
Q 33.796875 36.96875 37.203125 37.765625 
Q 40.625 38.578125 43.015625 40.765625 
Q 45.21875 42.828125 46.265625 45.484375 
Q 47.3125 48.140625 47.3125 52.25 
" id="Verdana-52"/>
     <path d="M 52.9375 0 
L 13.578125 0 
L 13.578125 7.421875 
L 28.71875 7.421875 
L 28.71875 56.15625 
L 13.578125 56.15625 
L 13.578125 62.796875 
Q 16.65625 62.796875 20.171875 63.296875 
Q 23.6875 63.8125 25.484375 64.796875 
Q 27.734375 66.015625 29.03125 67.890625 
Q 30.328125 69.78125 30.515625 72.953125 
L 38.09375 72.953125 
L 38.09375 7.421875 
L 52.9375 7.421875 
z
" id="Verdana-31"/>
     <path d="M 57.625 20.265625 
Q 57.625 10.84375 50.265625 4.59375 
Q 42.921875 -1.65625 31.78125 -1.65625 
Q 19.96875 -1.65625 12.953125 4.4375 
Q 5.953125 10.546875 5.953125 20.0625 
Q 5.953125 26.125 9.46875 31.03125 
Q 12.984375 35.9375 19.390625 38.8125 
L 19.390625 39.109375 
Q 13.53125 42.234375 10.71875 45.9375 
Q 7.90625 49.65625 7.90625 55.21875 
Q 7.90625 63.421875 14.640625 68.890625 
Q 21.390625 74.359375 31.78125 74.359375 
Q 42.671875 74.359375 49.171875 69.140625 
Q 55.671875 63.921875 55.671875 55.859375 
Q 55.671875 50.921875 52.59375 46.15625 
Q 49.515625 41.40625 43.5625 38.71875 
L 43.5625 38.421875 
Q 50.390625 35.5 54 31.203125 
Q 57.625 26.90625 57.625 20.265625 
M 46.046875 55.765625 
Q 46.046875 60.984375 42.015625 64.078125 
Q 37.984375 67.1875 31.734375 67.1875 
Q 25.59375 67.1875 21.65625 64.25 
Q 17.71875 61.328125 17.71875 56.34375 
Q 17.71875 52.828125 19.703125 50.265625 
Q 21.6875 47.703125 25.6875 45.703125 
Q 27.484375 44.828125 30.875 43.40625 
Q 34.28125 42 37.5 41.0625 
Q 42.328125 44.28125 44.1875 47.75 
Q 46.046875 51.21875 46.046875 55.765625 
M 47.5625 19.34375 
Q 47.5625 23.828125 45.578125 26.53125 
Q 43.609375 29.25 37.84375 31.984375 
Q 35.546875 33.0625 32.8125 33.984375 
Q 30.078125 34.90625 25.53125 36.578125 
Q 21.140625 34.1875 18.484375 30.078125 
Q 15.828125 25.984375 15.828125 20.796875 
Q 15.828125 14.203125 20.359375 9.90625 
Q 24.90625 5.609375 31.890625 5.609375 
Q 39.015625 5.609375 43.28125 9.265625 
Q 47.5625 12.9375 47.5625 19.34375 
" id="Verdana-38"/>
    </defs>
    <g transform="translate(89.7448449348 111.882287598)scale(0.11 -0.11)">
     <use xlink:href="#Verdana-52"/>
     <use x="69.5" xlink:href="#Verdana-65"/>
     <use x="129.0703125" xlink:href="#Verdana-73"/>
     <use x="181.169921875" xlink:href="#Verdana-4e"/>
     <use x="255.974609375" xlink:href="#Verdana-65"/>
     <use x="315.544921875" xlink:href="#Verdana-74"/>
     <use x="354.91796875" xlink:href="#Verdana-2d"/>
     <use x="400.328125" xlink:href="#Verdana-31"/>
     <use x="463.90234375" xlink:href="#Verdana-38"/>
    </g>
   </g>
   <g id="text_23">
    <!-- VGG-16 -->
    <defs>
     <path d="M 58.15625 23.578125 
Q 58.15625 12.5 50.859375 5.484375 
Q 43.5625 -1.515625 32.953125 -1.515625 
Q 27.59375 -1.515625 23.1875 0.140625 
Q 18.796875 1.8125 15.4375 5.078125 
Q 11.234375 9.125 8.953125 15.8125 
Q 6.6875 22.515625 6.6875 31.9375 
Q 6.6875 41.609375 8.765625 49.078125 
Q 10.84375 56.546875 15.375 62.359375 
Q 19.671875 67.875 26.453125 70.96875 
Q 33.25 74.078125 42.28125 74.078125 
Q 45.171875 74.078125 47.125 73.828125 
Q 49.078125 73.578125 51.078125 72.953125 
L 51.078125 63.625 
L 50.59375 63.625 
Q 49.21875 64.359375 46.453125 65.015625 
Q 43.703125 65.671875 40.828125 65.671875 
Q 30.328125 65.671875 24.078125 59.109375 
Q 17.828125 52.546875 16.796875 41.359375 
Q 20.90625 43.84375 24.875 45.140625 
Q 28.859375 46.4375 34.078125 46.4375 
Q 38.71875 46.4375 42.25 45.578125 
Q 45.796875 44.734375 49.515625 42.140625 
Q 53.8125 39.15625 55.984375 34.609375 
Q 58.15625 30.078125 58.15625 23.578125 
M 48.25 23.1875 
Q 48.25 27.734375 46.90625 30.703125 
Q 45.5625 33.6875 42.484375 35.890625 
Q 40.234375 37.453125 37.5 37.9375 
Q 34.765625 38.421875 31.78125 38.421875 
Q 27.640625 38.421875 24.078125 37.4375 
Q 20.515625 36.46875 16.75 34.421875 
Q 16.65625 33.34375 16.59375 32.34375 
Q 16.546875 31.34375 16.546875 29.828125 
Q 16.546875 22.125 18.140625 17.65625 
Q 19.734375 13.1875 22.515625 10.59375 
Q 24.75 8.453125 27.359375 7.453125 
Q 29.984375 6.453125 33.0625 6.453125 
Q 40.140625 6.453125 44.1875 10.765625 
Q 48.25 15.09375 48.25 23.1875 
" id="Verdana-36"/>
     <path d="M 70.40625 5.375 
Q 64.453125 2.640625 57.390625 0.609375 
Q 50.34375 -1.421875 43.75 -1.421875 
Q 35.25 -1.421875 28.171875 0.921875 
Q 21.09375 3.265625 16.109375 7.953125 
Q 11.078125 12.703125 8.34375 19.796875 
Q 5.609375 26.90625 5.609375 36.421875 
Q 5.609375 53.859375 15.796875 63.9375 
Q 25.984375 74.03125 43.75 74.03125 
Q 49.953125 74.03125 56.421875 72.53125 
Q 62.890625 71.046875 70.359375 67.484375 
L 70.359375 56 
L 69.484375 56 
Q 67.96875 57.171875 65.078125 59.078125 
Q 62.203125 60.984375 59.421875 62.25 
Q 56.0625 63.765625 51.78125 64.765625 
Q 47.515625 65.765625 42.09375 65.765625 
Q 29.890625 65.765625 22.78125 57.921875 
Q 15.671875 50.09375 15.671875 36.71875 
Q 15.671875 22.609375 23.09375 14.765625 
Q 30.515625 6.9375 43.3125 6.9375 
Q 48 6.9375 52.65625 7.859375 
Q 57.328125 8.796875 60.84375 10.25 
L 60.84375 28.078125 
L 41.359375 28.078125 
L 41.359375 36.578125 
L 70.40625 36.578125 
z
" id="Verdana-47"/>
     <path d="M 67.09375 72.703125 
L 40.625 0 
L 27.734375 0 
L 1.265625 72.703125 
L 11.625 72.703125 
L 34.421875 8.734375 
L 57.234375 72.703125 
z
" id="Verdana-56"/>
    </defs>
    <g transform="translate(307.063548607 58.6922409058)scale(0.11 -0.11)">
     <use xlink:href="#Verdana-56"/>
     <use x="68.359375" xlink:href="#Verdana-47"/>
     <use x="145.8984375" xlink:href="#Verdana-47"/>
     <use x="223.4375" xlink:href="#Verdana-2d"/>
     <use x="268.84765625" xlink:href="#Verdana-31"/>
     <use x="332.421875" xlink:href="#Verdana-36"/>
    </g>
   </g>
   <g id="text_24">
    <!-- VGG-19 -->
    <defs>
     <path d="M 56.984375 40.71875 
Q 56.984375 31.203125 54.8125 23.4375 
Q 52.640625 15.671875 48.25 10.203125 
Q 43.796875 4.640625 37.109375 1.609375 
Q 30.421875 -1.421875 21.390625 -1.421875 
Q 18.84375 -1.421875 16.59375 -1.140625 
Q 14.359375 -0.875 12.59375 -0.296875 
L 12.59375 9.03125 
L 13.09375 9.03125 
Q 14.5 8.296875 17.078125 7.640625 
Q 19.671875 6.984375 22.859375 6.984375 
Q 33.640625 6.984375 39.765625 13.453125 
Q 45.90625 19.921875 46.875 31.296875 
Q 42.328125 28.5625 38.328125 27.390625 
Q 34.328125 26.21875 29.59375 26.21875 
Q 25.09375 26.21875 21.453125 27.09375 
Q 17.828125 27.984375 14.15625 30.515625 
Q 9.859375 33.5 7.6875 38.078125 
Q 5.515625 42.671875 5.515625 49.078125 
Q 5.515625 60.203125 12.84375 67.1875 
Q 20.171875 74.171875 30.71875 74.171875 
Q 35.984375 74.171875 40.46875 72.53125 
Q 44.96875 70.90625 48.34375 67.625 
Q 52.484375 63.578125 54.734375 57.203125 
Q 56.984375 50.828125 56.984375 40.71875 
M 47.125 42.828125 
Q 47.125 50.390625 45.5625 54.984375 
Q 44 59.578125 41.265625 62.109375 
Q 38.96875 64.3125 36.328125 65.265625 
Q 33.6875 66.21875 30.609375 66.21875 
Q 23.578125 66.21875 19.5 61.8125 
Q 15.4375 57.421875 15.4375 49.46875 
Q 15.4375 44.828125 16.75 41.890625 
Q 18.0625 38.96875 21.1875 36.765625 
Q 23.390625 35.25 26.015625 34.734375 
Q 28.65625 34.234375 31.890625 34.234375 
Q 35.6875 34.234375 39.59375 35.25 
Q 43.5 36.28125 46.921875 38.234375 
Q 46.96875 39.265625 47.046875 40.265625 
Q 47.125 41.265625 47.125 42.828125 
" id="Verdana-39"/>
    </defs>
    <g transform="translate(385.432587427 57.6122848511)scale(0.11 -0.11)">
     <use xlink:href="#Verdana-56"/>
     <use x="68.359375" xlink:href="#Verdana-47"/>
     <use x="145.8984375" xlink:href="#Verdana-47"/>
     <use x="223.4375" xlink:href="#Verdana-2d"/>
     <use x="268.84765625" xlink:href="#Verdana-31"/>
     <use x="332.421875" xlink:href="#Verdana-39"/>
    </g>
   </g>
   <g id="text_25">
    <!-- GoogLeNet -->
    <defs>
     <path d="M 53.265625 6.203125 
Q 53.265625 -7.671875 46.96875 -14.15625 
Q 40.671875 -20.65625 27.59375 -20.65625 
Q 23.25 -20.65625 19.109375 -20.046875 
Q 14.984375 -19.4375 10.984375 -18.3125 
L 10.984375 -8.9375 
L 11.46875 -8.9375 
Q 13.71875 -9.8125 18.59375 -11.109375 
Q 23.484375 -12.40625 28.375 -12.40625 
Q 33.0625 -12.40625 36.125 -11.28125 
Q 39.203125 -10.15625 40.921875 -8.15625 
Q 42.625 -6.25 43.359375 -3.5625 
Q 44.09375 -0.875 44.09375 2.4375 
L 44.09375 7.421875 
Q 39.9375 4.109375 36.15625 2.46875 
Q 32.375 0.828125 26.515625 0.828125 
Q 16.75 0.828125 11.015625 7.875 
Q 5.28125 14.9375 5.28125 27.78125 
Q 5.28125 34.8125 7.25 39.90625 
Q 9.234375 45.015625 12.640625 48.734375 
Q 15.828125 52.203125 20.359375 54.125 
Q 24.90625 56.0625 29.390625 56.0625 
Q 34.125 56.0625 37.328125 55.109375 
Q 40.53125 54.15625 44.09375 52.203125 
L 44.671875 54.546875 
L 53.265625 54.546875 
z
M 44.09375 14.984375 
L 44.09375 44.734375 
Q 40.4375 46.390625 37.28125 47.09375 
Q 34.125 47.796875 31 47.796875 
Q 23.4375 47.796875 19.09375 42.71875 
Q 14.75 37.640625 14.75 27.984375 
Q 14.75 18.796875 17.96875 14.0625 
Q 21.1875 9.328125 28.65625 9.328125 
Q 32.671875 9.328125 36.6875 10.859375 
Q 40.71875 12.40625 44.09375 14.984375 
" id="Verdana-67"/>
     <path d="M 55.515625 27.25 
Q 55.515625 13.921875 48.671875 6.203125 
Q 41.84375 -1.515625 30.375 -1.515625 
Q 18.796875 -1.515625 11.984375 6.203125 
Q 5.171875 13.921875 5.171875 27.25 
Q 5.171875 40.578125 11.984375 48.3125 
Q 18.796875 56.0625 30.375 56.0625 
Q 41.84375 56.0625 48.671875 48.3125 
Q 55.515625 40.578125 55.515625 27.25 
M 46.046875 27.25 
Q 46.046875 37.84375 41.890625 42.984375 
Q 37.75 48.140625 30.375 48.140625 
Q 22.90625 48.140625 18.78125 42.984375 
Q 14.65625 37.84375 14.65625 27.25 
Q 14.65625 17 18.796875 11.6875 
Q 22.953125 6.390625 30.375 6.390625 
Q 37.703125 6.390625 41.875 11.640625 
Q 46.046875 16.890625 46.046875 27.25 
" id="Verdana-6f"/>
     <path d="M 55.765625 0 
L 9.765625 0 
L 9.765625 72.703125 
L 19.4375 72.703125 
L 19.4375 8.59375 
L 55.765625 8.59375 
z
" id="Verdana-4c"/>
    </defs>
    <g transform="translate(82.4893067478 129.913855591)scale(0.11 -0.11)">
     <use xlink:href="#Verdana-47"/>
     <use x="77.5390625" xlink:href="#Verdana-6f"/>
     <use x="138.232421875" xlink:href="#Verdana-6f"/>
     <use x="198.92578125" xlink:href="#Verdana-67"/>
     <use x="261.23046875" xlink:href="#Verdana-4c"/>
     <use x="316.89453125" xlink:href="#Verdana-65"/>
     <use x="376.46484375" xlink:href="#Verdana-4e"/>
     <use x="451.26953125" xlink:href="#Verdana-65"/>
     <use x="510.83984375" xlink:href="#Verdana-74"/>
    </g>
   </g>
   <g id="text_26">
    <!-- ResNet-34 -->
    <defs>
     <path d="M 58.734375 20.453125 
L 47.953125 20.453125 
L 47.953125 0 
L 38.578125 0 
L 38.578125 20.453125 
L 3.765625 20.453125 
L 3.765625 31.6875 
L 38.96875 72.703125 
L 47.953125 72.703125 
L 47.953125 28.265625 
L 58.734375 28.265625 
z
M 38.578125 28.265625 
L 38.578125 61.078125 
L 10.40625 28.265625 
z
" id="Verdana-34"/>
     <path d="M 50.6875 35.015625 
Q 53.03125 32.90625 54.546875 29.734375 
Q 56.0625 26.5625 56.0625 21.53125 
Q 56.0625 16.546875 54.25 12.390625 
Q 52.4375 8.25 49.171875 5.171875 
Q 45.515625 1.765625 40.546875 0.125 
Q 35.59375 -1.515625 29.6875 -1.515625 
Q 23.640625 -1.515625 17.78125 -0.0625 
Q 11.921875 1.375 8.15625 3.078125 
L 8.15625 13.28125 
L 8.890625 13.28125 
Q 13.03125 10.546875 18.640625 8.734375 
Q 24.265625 6.9375 29.5 6.9375 
Q 32.5625 6.9375 36.03125 7.953125 
Q 39.5 8.984375 41.65625 10.984375 
Q 43.890625 13.140625 44.984375 15.71875 
Q 46.09375 18.3125 46.09375 22.265625 
Q 46.09375 26.171875 44.84375 28.734375 
Q 43.609375 31.296875 41.40625 32.765625 
Q 39.203125 34.28125 36.078125 34.84375 
Q 32.953125 35.40625 29.34375 35.40625 
L 24.953125 35.40625 
L 24.953125 43.5 
L 28.375 43.5 
Q 35.796875 43.5 40.203125 46.59375 
Q 44.625 49.703125 44.625 55.671875 
Q 44.625 58.296875 43.5 60.265625 
Q 42.390625 62.25 40.375 63.53125 
Q 38.28125 64.796875 35.890625 65.28125 
Q 33.5 65.765625 30.46875 65.765625 
Q 25.828125 65.765625 20.59375 64.109375 
Q 15.375 62.453125 10.75 59.421875 
L 10.25 59.421875 
L 10.25 69.625 
Q 13.71875 71.34375 19.5 72.78125 
Q 25.296875 74.21875 30.71875 74.21875 
Q 36.03125 74.21875 40.078125 73.234375 
Q 44.140625 72.265625 47.40625 70.125 
Q 50.921875 67.78125 52.734375 64.453125 
Q 54.546875 61.140625 54.546875 56.6875 
Q 54.546875 50.640625 50.265625 46.125 
Q 46 41.609375 40.1875 40.4375 
L 40.1875 39.75 
Q 42.53125 39.359375 45.546875 38.109375 
Q 48.578125 36.859375 50.6875 35.015625 
" id="Verdana-33"/>
    </defs>
    <g transform="translate(127.070894768 82.8122436523)scale(0.11 -0.11)">
     <use xlink:href="#Verdana-52"/>
     <use x="69.5" xlink:href="#Verdana-65"/>
     <use x="129.0703125" xlink:href="#Verdana-73"/>
     <use x="181.169921875" xlink:href="#Verdana-4e"/>
     <use x="255.974609375" xlink:href="#Verdana-65"/>
     <use x="315.544921875" xlink:href="#Verdana-74"/>
     <use x="354.91796875" xlink:href="#Verdana-2d"/>
     <use x="400.328125" xlink:href="#Verdana-33"/>
     <use x="463.90234375" xlink:href="#Verdana-34"/>
    </g>
   </g>
   <g id="text_27">
    <!-- ResNet-50 -->
    <defs>
     <path d="M 56.5 23.09375 
Q 56.5 18.015625 54.640625 13.375 
Q 52.78125 8.734375 49.5625 5.5625 
Q 46.046875 2.15625 41.1875 0.3125 
Q 36.328125 -1.515625 29.9375 -1.515625 
Q 23.96875 -1.515625 18.453125 -0.265625 
Q 12.9375 0.984375 9.125 2.734375 
L 9.125 13.03125 
L 9.8125 13.03125 
Q 13.8125 10.5 19.1875 8.71875 
Q 24.5625 6.9375 29.734375 6.9375 
Q 33.203125 6.9375 36.453125 7.90625 
Q 39.703125 8.890625 42.234375 11.328125 
Q 44.390625 13.421875 45.484375 16.34375 
Q 46.578125 19.28125 46.578125 23.140625 
Q 46.578125 26.90625 45.28125 29.484375 
Q 44 32.078125 41.703125 33.640625 
Q 39.15625 35.5 35.515625 36.25 
Q 31.890625 37.015625 27.390625 37.015625 
Q 23.09375 37.015625 19.109375 36.421875 
Q 15.140625 35.84375 12.25 35.25 
L 12.25 72.703125 
L 56 72.703125 
L 56 64.15625 
L 21.6875 64.15625 
L 21.6875 44.828125 
Q 23.78125 45.015625 25.96875 45.109375 
Q 28.171875 45.21875 29.78125 45.21875 
Q 35.6875 45.21875 40.125 44.21875 
Q 44.578125 43.21875 48.296875 40.671875 
Q 52.203125 37.984375 54.34375 33.734375 
Q 56.5 29.5 56.5 23.09375 
" id="Verdana-35"/>
     <path d="M 56.984375 36.375 
Q 56.984375 16.796875 50.859375 7.640625 
Q 44.734375 -1.515625 31.84375 -1.515625 
Q 18.75 -1.515625 12.71875 7.765625 
Q 6.6875 17.046875 6.6875 36.28125 
Q 6.6875 55.671875 12.78125 64.921875 
Q 18.890625 74.171875 31.84375 74.171875 
Q 44.921875 74.171875 50.953125 64.765625 
Q 56.984375 55.375 56.984375 36.375 
M 44.140625 14.203125 
Q 45.84375 18.171875 46.453125 23.515625 
Q 47.078125 28.859375 47.078125 36.375 
Q 47.078125 43.796875 46.453125 49.265625 
Q 45.84375 54.734375 44.09375 58.546875 
Q 42.390625 62.3125 39.421875 64.203125 
Q 36.46875 66.109375 31.84375 66.109375 
Q 27.25 66.109375 24.234375 64.203125 
Q 21.234375 62.3125 19.484375 58.453125 
Q 17.828125 54.828125 17.21875 49.015625 
Q 16.609375 43.21875 16.609375 36.28125 
Q 16.609375 28.65625 17.140625 23.53125 
Q 17.671875 18.40625 19.4375 14.359375 
Q 21.046875 10.546875 24 8.546875 
Q 26.953125 6.546875 31.84375 6.546875 
Q 36.421875 6.546875 39.453125 8.453125 
Q 42.484375 10.359375 44.140625 14.203125 
" id="Verdana-30"/>
    </defs>
    <g transform="translate(44.0195879976 57.4322463989)scale(0.11 -0.11)">
     <use xlink:href="#Verdana-52"/>
     <use x="69.5" xlink:href="#Verdana-65"/>
     <use x="129.0703125" xlink:href="#Verdana-73"/>
     <use x="181.169921875" xlink:href="#Verdana-4e"/>
     <use x="255.974609375" xlink:href="#Verdana-65"/>
     <use x="315.544921875" xlink:href="#Verdana-74"/>
     <use x="354.91796875" xlink:href="#Verdana-2d"/>
     <use x="400.328125" xlink:href="#Verdana-35"/>
     <use x="463.90234375" xlink:href="#Verdana-30"/>
    </g>
   </g>
   <g id="text_28">
    <!-- ResNet-101 -->
    <g transform="translate(210.724773905 43.212298584)scale(0.11 -0.11)">
     <use xlink:href="#Verdana-52"/>
     <use x="69.5" xlink:href="#Verdana-65"/>
     <use x="129.0703125" xlink:href="#Verdana-73"/>
     <use x="181.169921875" xlink:href="#Verdana-4e"/>
     <use x="255.974609375" xlink:href="#Verdana-65"/>
     <use x="315.544921875" xlink:href="#Verdana-74"/>
     <use x="354.91796875" xlink:href="#Verdana-2d"/>
     <use x="400.328125" xlink:href="#Verdana-31"/>
     <use x="463.90234375" xlink:href="#Verdana-30"/>
     <use x="527.4765625" xlink:href="#Verdana-31"/>
    </g>
   </g>
   <g id="text_29">
    <!-- Inception-v3 -->
    <defs>
     <path d="M 56.203125 54.546875 
L 34.125 0 
L 24.90625 0 
L 2.984375 54.546875 
L 12.9375 54.546875 
L 29.828125 11.140625 
L 46.578125 54.546875 
z
" id="Verdana-76"/>
     <path d="M 18.890625 63.671875 
L 8.546875 63.671875 
L 8.546875 73.1875 
L 18.890625 73.1875 
z
M 18.3125 0 
L 9.125 0 
L 9.125 54.546875 
L 18.3125 54.546875 
z
" id="Verdana-69"/>
     <path d="M 49.359375 3.421875 
Q 44.78125 1.21875 40.65625 0 
Q 36.53125 -1.21875 31.890625 -1.21875 
Q 25.984375 -1.21875 21.046875 0.515625 
Q 16.109375 2.25 12.59375 5.765625 
Q 9.03125 9.28125 7.078125 14.640625 
Q 5.125 20.015625 5.125 27.203125 
Q 5.125 40.578125 12.46875 48.1875 
Q 19.828125 55.8125 31.890625 55.8125 
Q 36.578125 55.8125 41.09375 54.484375 
Q 45.609375 53.171875 49.359375 51.265625 
L 49.359375 41.0625 
L 48.875 41.0625 
Q 44.671875 44.34375 40.203125 46.09375 
Q 35.75 47.859375 31.5 47.859375 
Q 23.6875 47.859375 19.171875 42.609375 
Q 14.65625 37.359375 14.65625 27.203125 
Q 14.65625 17.328125 19.0625 12.03125 
Q 23.484375 6.734375 31.5 6.734375 
Q 34.28125 6.734375 37.15625 7.46875 
Q 40.046875 8.203125 42.328125 9.375 
Q 44.34375 10.40625 46.09375 11.546875 
Q 47.859375 12.703125 48.875 13.53125 
L 49.359375 13.53125 
z
" id="Verdana-63"/>
     <path d="M 57.03125 27.9375 
Q 57.03125 21.296875 55.125 15.796875 
Q 53.21875 10.296875 49.75 6.5 
Q 46.53125 2.875 42.15625 0.890625 
Q 37.796875 -1.078125 32.90625 -1.078125 
Q 28.65625 -1.078125 25.21875 -0.140625 
Q 21.78125 0.78125 18.21875 2.734375 
L 18.21875 -20.125 
L 9.03125 -20.125 
L 9.03125 54.546875 
L 18.21875 54.546875 
L 18.21875 48.828125 
Q 21.875 51.90625 26.4375 53.984375 
Q 31 56.0625 36.1875 56.0625 
Q 46.046875 56.0625 51.53125 48.609375 
Q 57.03125 41.15625 57.03125 27.9375 
M 47.5625 27.6875 
Q 47.5625 37.546875 44.1875 42.421875 
Q 40.828125 47.3125 33.84375 47.3125 
Q 29.890625 47.3125 25.875 45.59375 
Q 21.875 43.890625 18.21875 41.109375 
L 18.21875 10.203125 
Q 22.125 8.453125 24.921875 7.8125 
Q 27.734375 7.171875 31.296875 7.171875 
Q 38.96875 7.171875 43.265625 12.34375 
Q 47.5625 17.53125 47.5625 27.6875 
" id="Verdana-70"/>
     <path d="M 54.640625 0 
L 45.453125 0 
L 45.453125 31.0625 
Q 45.453125 34.8125 45.015625 38.109375 
Q 44.578125 41.40625 43.40625 43.265625 
Q 42.1875 45.3125 39.890625 46.3125 
Q 37.59375 47.3125 33.9375 47.3125 
Q 30.171875 47.3125 26.0625 45.453125 
Q 21.96875 43.609375 18.21875 40.71875 
L 18.21875 0 
L 9.03125 0 
L 9.03125 54.546875 
L 18.21875 54.546875 
L 18.21875 48.484375 
Q 22.515625 52.046875 27.09375 54.046875 
Q 31.6875 56.0625 36.53125 56.0625 
Q 45.359375 56.0625 50 50.734375 
Q 54.640625 45.40625 54.640625 35.40625 
z
" id="Verdana-6e"/>
    </defs>
    <g transform="translate(59.5421316226 32.5022766113)scale(0.11 -0.11)">
     <use xlink:href="#Verdana-49"/>
     <use x="42.08984375" xlink:href="#Verdana-6e"/>
     <use x="105.37109375" xlink:href="#Verdana-63"/>
     <use x="157.470703125" xlink:href="#Verdana-65"/>
     <use x="217.041015625" xlink:href="#Verdana-70"/>
     <use x="279.345703125" xlink:href="#Verdana-74"/>
     <use x="318.75" xlink:href="#Verdana-69"/>
     <use x="346.19140625" xlink:href="#Verdana-6f"/>
     <use x="406.884765625" xlink:href="#Verdana-6e"/>
     <use x="470.166015625" xlink:href="#Verdana-2d"/>
     <use x="515.544921875" xlink:href="#Verdana-76"/>
     <use x="574.724609375" xlink:href="#Verdana-33"/>
    </g>
   </g>
   <g id="text_30">
    <!-- 5M -->
    <defs>
     <path d="M 74.515625 0 
L 64.84375 0 
L 64.84375 62.640625 
L 44.625 20.015625 
L 38.875 20.015625 
L 18.796875 62.640625 
L 18.796875 0 
L 9.765625 0 
L 9.765625 72.703125 
L 22.953125 72.703125 
L 42.328125 32.234375 
L 61.078125 72.703125 
L 74.515625 72.703125 
z
" id="Verdana-4d"/>
    </defs>
    <g transform="translate(170.727091942 199.272265625)scale(0.11 -0.11)">
     <use xlink:href="#Verdana-35"/>
     <use x="63.57421875" xlink:href="#Verdana-4d"/>
    </g>
   </g>
   <g id="text_31">
    <!-- 35M -->
    <g transform="translate(216.842794421 199.272265625)scale(0.11 -0.11)">
     <use xlink:href="#Verdana-33"/>
     <use x="63.57421875" xlink:href="#Verdana-35"/>
     <use x="127.1484375" xlink:href="#Verdana-4d"/>
    </g>
   </g>
   <g id="text_32">
    <!-- 65M -->
    <g transform="translate(262.958496901 199.272265625)scale(0.11 -0.11)">
     <use xlink:href="#Verdana-36"/>
     <use x="63.57421875" xlink:href="#Verdana-35"/>
     <use x="127.1484375" xlink:href="#Verdana-4d"/>
    </g>
   </g>
   <g id="text_33">
    <!-- 95M -->
    <g transform="translate(309.07419938 199.272265625)scale(0.11 -0.11)">
     <use xlink:href="#Verdana-39"/>
     <use x="63.57421875" xlink:href="#Verdana-35"/>
     <use x="127.1484375" xlink:href="#Verdana-4d"/>
    </g>
   </g>
   <g id="text_34">
    <!-- 125M -->
    <defs>
     <path d="M 57.078125 0 
L 7.859375 0 
L 7.859375 10.203125 
Q 12.984375 14.59375 18.140625 18.984375 
Q 23.296875 23.390625 27.734375 27.734375 
Q 37.109375 36.8125 40.578125 42.15625 
Q 44.046875 47.515625 44.046875 53.71875 
Q 44.046875 59.375 40.3125 62.5625 
Q 36.578125 65.765625 29.890625 65.765625 
Q 25.4375 65.765625 20.265625 64.203125 
Q 15.09375 62.640625 10.15625 59.421875 
L 9.671875 59.421875 
L 9.671875 69.671875 
Q 13.140625 71.390625 18.921875 72.796875 
Q 24.703125 74.21875 30.125 74.21875 
Q 41.3125 74.21875 47.65625 68.8125 
Q 54 63.421875 54 54.203125 
Q 54 50.046875 52.953125 46.453125 
Q 51.90625 42.875 49.859375 39.65625 
Q 47.953125 36.625 45.390625 33.6875 
Q 42.828125 30.765625 39.15625 27.203125 
Q 33.9375 22.078125 28.359375 17.265625 
Q 22.796875 12.453125 17.96875 8.34375 
L 57.078125 8.34375 
z
" id="Verdana-32"/>
    </defs>
    <g transform="translate(355.18990186 199.272265625)scale(0.11 -0.11)">
     <use xlink:href="#Verdana-31"/>
     <use x="63.57421875" xlink:href="#Verdana-32"/>
     <use x="127.1484375" xlink:href="#Verdana-35"/>
     <use x="190.72265625" xlink:href="#Verdana-4d"/>
    </g>
   </g>
   <g id="text_35">
    <!-- 155M -->
    <g transform="translate(401.305604339 199.272265625)scale(0.11 -0.11)">
     <use xlink:href="#Verdana-31"/>
     <use x="63.57421875" xlink:href="#Verdana-35"/>
     <use x="127.1484375" xlink:href="#Verdana-35"/>
     <use x="190.72265625" xlink:href="#Verdana-4d"/>
    </g>
   </g>
  </g>
 </g>
 <defs>
  <clipPath id="pc35cd14007">
   <rect height="279.0" width="405.818181818" x="41.603125" y="7.2"/>
  </clipPath>
 </defs>
</svg>
